<?xml version="1.0" encoding="UTF-8"?>
<svg height="313" width="721" xmlns="http://www.w3.org/2000/svg">
  <path
    d="M0 0 C3.22415728 1.40303987 5.18841809 3.05094143 7.5625 5.625 C10.67888099 8.84603557 13.88315818 11.44265527 17.5625 14 C21.68662279 16.91913218 24.93299418 19.83644481 28.125 23.734375 C30.48292738 26.58353725 32.98794449 29.28765613 35.5 32 C39.24273186 36.05414952 42.91346729 40.15540228 46.46484375 44.37890625 C49.58647599 47.67528635 52.74255528 49.46258941 57 51 C57.47308594 50.32195313 57.94617188 49.64390625 58.43359375 48.9453125 C63.2181702 42.21146416 68.35302739 36.02605179 74 30 C78.30807708 32.24769239 81.99392604 34.72243915 85.75 37.8125 C90.91310562 42.01629748 96.26218442 45.62756962 102 49 C103.56041016 49.928125 103.56041016 49.928125 105.15234375 50.875 C106.19519531 51.4525 107.23804688 52.03 108.3125 52.625 C109.25738281 53.15351562 110.20226562 53.68203125 111.17578125 54.2265625 C114.08541696 55.31060586 114.08541696 55.31060586 117.20703125 53.87890625 C119.85718308 52.09607684 120.99947263 51.11645964 122.375 48.3125 C122.91125 47.219375 123.4475 46.12625 124 45 C125.33921905 45.35340503 126.67114575 45.73442459 128 46.125 C128.7425 46.33382812 129.485 46.54265625 130.25 46.7578125 C137.41981032 49.99644841 142.75608327 55.53771795 147.9375 61.3125 C149.14816914 62.64205672 150.36040803 63.97018575 151.57421875 65.296875 C152.15606934 65.93302734 152.73791992 66.56917969 153.33740234 67.22460938 C156.19908542 70.28043307 159.24686638 73.14044673 162.328125 75.97265625 C164.39565329 78.47977584 165.13607022 80.89249746 166 84 C160.08416279 80.81516166 154.80463169 77.03061893 149.4375 73 C144.36545192 69.20885225 139.31480651 65.44557959 134 62 C132.79315639 72.74884912 132.79315639 72.74884912 136.4375 82.4375 C141.96589137 87.53803216 149.25707664 90.6750511 155.9453125 93.97900391 C158.74331775 95.3693625 161.50025284 96.8292804 164.25 98.3125 C165.05953125 98.74175781 165.8690625 99.17101562 166.703125 99.61328125 C169.33179067 101.2003158 171.64133869 103.03863093 174 105 C162.69274631 105.27123847 156.13163632 102.40758539 147 96 C138.90533131 90.23612225 138.90533131 90.23612225 129.6875 87.125 C123.90576688 85.36108142 120.80113362 81.25117147 118 76 C117.64091373 72.84408685 118.08085664 71.10210885 119 68 C117.783125 67.649375 116.56625 67.29875 115.3125 66.9375 C104.11868695 63.15342798 95.42633559 57.14021214 87 49 C85.46649063 47.6366026 83.92545787 46.2815922 82.375 44.9375 C81.72273437 44.36902344 81.07046875 43.80054688 80.3984375 43.21484375 C79.93695312 42.81394531 79.47546875 42.41304687 79 42 C80.25146821 47.47345439 82.03588657 50.80633575 85.625 55.25 C90 60.68769716 90 60.68769716 90 64 C86.7 61.03 83.4 58.06 80 55 C79.67 55.99 79.34 56.98 79 58 C80.28511874 60.03131672 81.61876037 62.03277992 83 64 C83 64.66 83 65.32 83 66 C82.01 66 81.02 66 80 66 C81.27566714 71.27275752 83.64328282 73.9823786 87.6875 77.375 C92.53805317 81.6145 96.92440461 85.99160989 101 91 C100.67 91.66 100.34 92.32 100 93 C99.33613281 92.51789063 98.67226563 92.03578125 97.98828125 91.5390625 C97.10527344 90.90742187 96.22226562 90.27578125 95.3125 89.625 C94.44238281 88.99851562 93.57226562 88.37203125 92.67578125 87.7265625 C90.16403048 86.10584157 87.80700813 85.00141912 85 84 C85.17322558 90.08288298 86.15935409 92.96850302 90.50634766 97.22363281 C91.12300293 97.78920898 91.7396582 98.35478516 92.375 98.9375 C93.00841309 99.54303711 93.64182617 100.14857422 94.29443359 100.77246094 C99.62774012 105.81178455 105.24474 110.45293643 111 115 C113.2397115 116.84159994 115.46421913 118.70111803 117.6875 120.5625 C118.71219498 121.41802217 119.73693038 122.27349594 120.76171875 123.12890625 C121.86966797 124.05509766 121.86966797 124.05509766 123 125 C122.67 125.66 122.34 126.32 122 127 C118.2710078 125.46487193 114.55527335 123.90143304 110.84887695 122.3125 C109.59037379 121.77752765 108.3286884 121.24997079 107.0637207 120.73046875 C99.78007465 117.73284631 94.52385853 115.17252424 89.7199707 108.8828125 C86.45242069 105.3059004 81.99369785 103.67197416 77.625 101.75 C75.81964165 100.94535509 74.01978841 100.12820707 72.2265625 99.296875 C71.43846191 98.94979492 70.65036133 98.60271484 69.83837891 98.24511719 C68 97 68 97 67.24755859 95.00097656 C67.0701227 93.56679059 66.92928866 92.12789345 66.8125 90.6875 C65.74997501 87.17299426 63.76707188 85.19282216 61.27734375 82.55078125 C60 81 60 81 60 79 C64.97209562 80.76429199 69.43438061 83.3939166 74 86 C70.67848642 80.18735123 67.85301103 75.98045185 61.61328125 73.2109375 C60.59298828 72.74429688 59.57269531 72.27765625 58.52148438 71.796875 C57.46251953 71.32765625 56.40355469 70.8584375 55.3125 70.375 C53.20018923 69.43393439 51.09186354 68.48385554 48.98828125 67.5234375 C48.05540283 67.11013184 47.12252441 66.69682617 46.16137695 66.27099609 C44 65 44 65 43 62 C44.98 61.34 46.96 60.68 49 60 C48.33613281 59.74605469 47.67226563 59.49210937 46.98828125 59.23046875 C37.03809874 55.35207644 37.03809874 55.35207644 34 53 C33.1875 50.8125 33.1875 50.8125 33 49 C34.32 48.34 35.64 47.68 37 47 C36.34515625 46.51273438 35.6903125 46.02546875 35.015625 45.5234375 C27.42051532 39.62328168 21.47213079 33.04605442 15.37939453 25.65527344 C12.34977653 22.01973183 9.16438924 18.51805627 6 15 C7.66153012 20.85659906 9.47041916 26.4590134 12 32 C8.04093183 30.56691865 4.71281819 28.66858051 1.1875 26.375 C-0.27623047 25.42753906 -0.27623047 25.42753906 -1.76953125 24.4609375 C-2.87361328 23.73777344 -2.87361328 23.73777344 -4 23 C-4.28875 23.928125 -4.5775 24.85625 -4.875 25.8125 C-6 29 -6 29 -8 32 C-8.39013716 33.9896995 -8.73202649 35.99019869 -9 38 C-10.485 38.495 -10.485 38.495 -12 39 C-11.566875 39.55429687 -11.13375 40.10859375 -10.6875 40.6796875 C-9.8521875 41.76636719 -9.8521875 41.76636719 -9 42.875 C-8.1646875 43.95394531 -8.1646875 43.95394531 -7.3125 45.0546875 C-6 47 -6 47 -6 49 C-8.31 48.34 -10.62 47.68 -13 47 C-13.33 48.98 -13.66 50.96 -14 53 C-13.4225 53.2475 -12.845 53.495 -12.25 53.75 C-8.17037375 56.01645903 -5.4310339 59.58766468 -2.625 63.25 C-2.08101562 63.95640625 -1.53703125 64.6628125 -0.9765625 65.390625 C-0.32429687 66.25171875 0.32796875 67.1128125 1 68 C1.47099121 68.54720703 1.94198242 69.09441406 2.42724609 69.65820312 C7.06477222 75.28314858 8.95680727 81.03347277 10.875 88 C11.18179688 89.06089844 11.48859375 90.12179688 11.8046875 91.21484375 C12.55168004 93.80597411 13.28295055 96.40045589 14 99 C13.34 99 12.68 99 12 99 C11.73896484 98.46632813 11.47792969 97.93265625 11.20898438 97.3828125 C4.28660652 81.93681032 4.28660652 81.93681032 -8 71 C-8.33 71.99 -8.66 72.98 -9 74 C-11 72 -11 72 -11.8125 68.6875 C-13.20319873 64.36901447 -14.36965843 62.70344585 -18 60 C-23.09098565 58.16609898 -28.62916753 57.3555001 -34 58 C-36.28337534 60.24663137 -36.9615228 61.51168937 -37.21484375 64.7265625 C-37.12332031 65.68304688 -37.03179687 66.63953125 -36.9375 67.625 C-36.82728516 69.06746094 -36.82728516 69.06746094 -36.71484375 70.5390625 C-36.26194446 73.12795767 -36.26194446 73.12795767 -34.12890625 74.1484375 C-33.42636719 74.42945312 -32.72382813 74.71046875 -32 75 C-28.76936496 77.53367063 -27.34488337 81.060819 -25.625 84.6875 C-21.44063558 93.33169179 -16.82492463 101.72434287 -12.12939453 110.1003418 C-11.30544189 111.59368042 -11.30544189 111.59368042 -10.46484375 113.1171875 C-9.71642212 114.45692627 -9.71642212 114.45692627 -8.95288086 115.82373047 C-8.63843018 116.54189941 -8.32397949 117.26006836 -8 118 C-8.33 118.66 -8.66 119.32 -9 120 C-10.00593243 118.8803014 -11.0045849 117.7540588 -12 116.625 C-12.556875 115.99851562 -13.11375 115.37203125 -13.6875 114.7265625 C-15 113 -15 113 -15 111 C-15.66 111 -16.32 111 -17 111 C-18.64476632 109.05454514 -20.17478133 107.10703383 -21.6875 105.0625 C-22.59729361 103.85259181 -23.50745069 102.64295685 -24.41796875 101.43359375 C-25.0838501 100.54389893 -25.0838501 100.54389893 -25.76318359 99.63623047 C-27.3023677 97.59998651 -28.90040962 95.61398947 -30.5 93.625 C-32.55072743 91.02105308 -34.42671434 88.36995928 -36.1953125 85.5703125 C-43.64122521 73.81730075 -52.5561825 64.71767232 -63.12109375 55.71875 C-66.15640163 52.94216898 -68.82914631 49.86092053 -71.546875 46.77734375 C-74.34708245 43.60704519 -77.1994569 40.48844965 -80.0625 37.375 C-80.55210205 36.84173096 -81.0417041 36.30846191 -81.54614258 35.7590332 C-82.6969825 34.5056126 -83.84842306 33.25274351 -85 32 C-86.65 32.66 -88.3 33.32 -90 34 C-87.35529943 36.85459744 -85.05223561 38.57869323 -81.5625 40.25 C-73.59942185 44.79692953 -68.4264685 52.79629264 -63 60 C-67.08437549 60 -68.24364592 58.3816591 -71.3125 55.75 C-77.24028408 50.69030146 -82.94542877 46.94067829 -90.0625 43.75 C-95.11494967 41.36104507 -98.55978046 39.21283788 -100.91015625 33.9921875 C-103.66979881 28.94767959 -108.96286285 25.12475991 -113.1875 21.25 C-113.98704102 20.50943359 -113.98704102 20.50943359 -114.80273438 19.75390625 C-117.68080594 17.070738 -117.68080594 17.070738 -121 15 C-120.62095792 18.29075996 -120.62095792 18.29075996 -119 21 C-118.95907063 23.33297433 -118.95758277 25.66705225 -119 28 C-120.32 27.67 -121.64 27.34 -123 27 C-122.47731534 29.76276177 -121.89130413 32.3260876 -121 35 C-122.32 35 -123.64 35 -125 35 C-125 36.32 -125 37.64 -125 39 C-123.48164354 40.2980775 -123.48164354 40.2980775 -121.4375 41.25 C-116.59364831 44.00434704 -113.43509349 47.67392914 -110 52 C-113.60648031 52 -114.65229471 51.10012314 -117.5625 49.0625 C-120.68680228 46.8716815 -120.68680228 46.8716815 -124 45 C-122.56941305 49.53019201 -121.36632037 52.86648989 -118.0625 56.3125 C-114.12905224 60.53041156 -112.66869788 65.57182394 -111 71 C-114.52722899 69.48602956 -116.86480354 67.39331518 -119.625 64.75 C-124.37727745 60.37253015 -129.33423093 57.07398109 -135 54 C-135.40089844 54.42152344 -135.80179687 54.84304687 -136.21484375 55.27734375 C-139.52360365 58.46605794 -141.61670354 60.29578898 -146.3125 60.3125 C-152.82722198 60.53714559 -156.71229808 65.5690763 -161 70 C-159.48947977 73.67670584 -157.3511385 75.71874462 -154.375 78.3125 C-153.02148438 79.50166016 -153.02148438 79.50166016 -151.640625 80.71484375 C-150.76921875 81.46894531 -149.8978125 82.22304687 -149 83 C-147.70781336 84.12440272 -146.41610316 85.24935334 -145.125 86.375 C-144.48691406 86.92800781 -143.84882813 87.48101562 -143.19140625 88.05078125 C-140.96594358 90.03029261 -138.79621706 92.06400324 -136.62402344 94.1015625 C-136.1087207 94.58367187 -135.59341797 95.06578125 -135.0625 95.5625 C-134.2876123 96.28759766 -134.2876123 96.28759766 -133.49707031 97.02734375 C-130.6084349 99.68087886 -127.7546257 101.89507769 -124.375 103.875 C-118.12626327 107.81147855 -114.18738453 114.06086822 -110 120 C-109.38777588 120.85948242 -109.38777588 120.85948242 -108.76318359 121.73632812 C-105.1726092 126.78813268 -101.62515013 131.81962073 -98.625 137.25 C-95.94720902 141.66697481 -91.97089588 144.35129885 -87.9375 147.48046875 C-82.96160358 151.74835863 -79.02003331 156.84633474 -75 162 C-75.33 162.66 -75.66 163.32 -76 164 C-82.37159058 160.05892011 -88.70203412 156.05768553 -95 152 C-95.96164062 151.38511719 -96.92328125 150.77023438 -97.9140625 150.13671875 C-103.09114779 146.49393328 -106.45639079 141.86936476 -109.97949219 136.69384766 C-114.6380584 129.8891802 -120.06252878 123.80358525 -125.54980469 117.66235352 C-126.93955199 116.06929134 -128.25252953 114.43304414 -129.56640625 112.77734375 C-131.95307403 110.05355436 -134.03589053 108.41135507 -137.125 106.5625 C-138.08277344 105.97855469 -139.04054688 105.39460938 -140.02734375 104.79296875 C-141.00832031 104.20128906 -141.98929687 103.60960938 -143 103 C-144.89902229 101.79668466 -146.79493803 100.58845072 -148.6875 99.375 C-153.11055115 96.55975336 -157.54924789 93.77122301 -162 91 C-161.9175 91.9075 -161.835 92.815 -161.75 93.75 C-162.05464439 97.71037702 -163.14911051 98.4184859 -166 101 C-165.30777344 101.44988281 -164.61554688 101.89976563 -163.90234375 102.36328125 C-157.28759509 106.7121081 -150.88270355 111.2562303 -144.53271484 115.97924805 C-139.78349551 119.48732001 -134.92495727 122.68758059 -129.87890625 125.7578125 C-129.25886719 126.16773438 -128.63882812 126.57765625 -128 127 C-128 127.33 -128 127.66 -128 128 C-136.70788048 127.97097373 -141.59013265 126.84037062 -148 121 C-149.8685248 119.45049163 -151.74391507 117.90923616 -153.625 116.375 C-154.5634375 115.60671875 -155.501875 114.8384375 -156.46875 114.046875 C-160.6164596 110.69286292 -164.21047652 108.17053551 -169.3125 106.625 C-174.27443411 105.0554086 -179.52209806 102.97944336 -183 99 C-183.24609375 95.296875 -183.24609375 95.296875 -183 92 C-183.53367187 91.72849121 -184.06734375 91.45698242 -184.6171875 91.17724609 C-187.08216649 89.91756933 -189.54103586 88.64637553 -192 87.375 C-192.83917969 86.94832031 -193.67835938 86.52164063 -194.54296875 86.08203125 C-201.63170089 82.40028665 -208.1809538 78.22830604 -213.6875 72.375 C-216.29976062 69.67286803 -218.99769694 67.27447202 -222 65 C-220.74646253 70.44569555 -218.96487531 73.85657004 -215.4375 78.3125 C-211.0397351 83.9205298 -211.0397351 83.9205298 -210 86 C-213.03852705 84.59023295 -215.5939595 82.91129772 -218.25 80.875 C-219.30960937 80.06675781 -219.30960937 80.06675781 -220.390625 79.2421875 C-220.92171875 78.83226563 -221.4528125 78.42234375 -222 78 C-221.46288277 81.86724404 -220.40657902 83.96561775 -218 87 C-218 87.66 -218 88.32 -218 89 C-219.32 89 -220.64 89 -222 89 C-218.93874344 94.78408274 -215.3425404 98.63870758 -210.359375 102.8359375 C-206.39880175 106.46864872 -203.22233816 110.71525607 -200 115 C-203.58179266 115 -204.5576607 114.15497104 -207.4375 112.125 C-210.22123848 110.17497 -212.9204612 108.44506832 -216 107 C-216 115.67799586 -213.09629346 123.74239337 -207 130 C-200.98891501 134.53657518 -194.3134477 137.99338605 -187.67626953 141.51171875 C-183.62037866 143.76721143 -179.80443599 146.34730101 -176 149 C-179.2952385 150.09841283 -180.19063484 149.91514906 -183.4453125 149.06640625 C-184.34572266 148.83493896 -185.24613281 148.60347168 -186.17382812 148.36499023 C-190.33582474 147.23324943 -194.48715926 146.06460596 -198.63769531 144.89160156 C-202.02035599 143.99460209 -205.40993619 143.26611365 -208.8359375 142.5546875 C-224.86655841 138.871773 -224.86655841 138.871773 -228.67333984 133.74755859 C-231.19498501 128.5212536 -232.34285624 123.0617658 -233.43164062 117.39257812 C-234.40421399 113.2984119 -236.54897971 110.14166338 -238.93359375 106.7421875 C-240 105 -240 105 -240 102 C-235.71 104.31 -231.42 106.62 -227 109 C-232.00869977 100.65216704 -235.72574525 97.78888591 -244.5 93.9375 C-246.38905974 93.10062347 -248.27463188 92.25582033 -250.15625 91.40234375 C-250.98962891 91.03616943 -251.82300781 90.66999512 -252.68164062 90.29272461 C-255.2592291 88.85545302 -257.01270577 87.16595633 -259 85 C-256.03 84.34 -253.06 83.68 -250 83 C-251.14339844 82.38511719 -252.28679687 81.77023438 -253.46484375 81.13671875 C-254.95599823 80.32080404 -256.44686907 79.50437081 -257.9375 78.6875 C-258.69224609 78.28337891 -259.44699219 77.87925781 -260.22460938 77.46289062 C-260.94326172 77.06650391 -261.66191406 76.67011719 -262.40234375 76.26171875 C-263.06741943 75.90037842 -263.73249512 75.53903809 -264.41772461 75.16674805 C-266 74 -266 74 -267 71 C-265.515 70.505 -265.515 70.505 -264 70 C-264.61746094 69.53851563 -265.23492187 69.07703125 -265.87109375 68.6015625 C-275.33264827 61.31458139 -282.6065162 52.62450044 -290.0546875 43.34765625 C-291.62860416 41.44821064 -293.21668596 39.69919545 -295 38 C-293.77947449 43.79749617 -292.03941639 47.93430602 -289 53 C-289 53.66 -289 54.32 -289 55 C-289.99 54.67 -290.98 54.34 -292 54 C-292 53.34 -292 52.68 -292 52 C-292.66 52 -293.32 52 -294 52 C-295.625 50 -295.625 50 -297 48 C-300.59905908 48.55550695 -301.99909799 49.74887248 -304.25 52.5625 C-304.77078125 53.20316406 -305.2915625 53.84382813 -305.828125 54.50390625 C-306.21484375 54.99761719 -306.6015625 55.49132813 -307 56 C-306.38125 56.57331055 -306.38125 56.57331055 -305.75 57.15820312 C-290.61058115 71.19933824 -290.61058115 71.19933824 -284 78 C-287.30588802 78 -287.98357228 77.57590193 -290.6171875 75.77734375 C-291.30683594 75.32166016 -291.99648438 74.86597656 -292.70703125 74.39648438 C-294.1487897 73.42621991 -295.58633838 72.44966958 -297.01953125 71.46679688 C-301.04208507 68.7715361 -301.04208507 68.7715361 -305.6953125 67.87890625 C-308.77529905 69.377137 -310.72812484 71.46848197 -313 74 C-311.98421875 74.51304688 -310.9684375 75.02609375 -309.921875 75.5546875 C-297.02938764 82.54794235 -290.82423333 91.84500815 -283.66040039 104.33569336 C-279.95439066 110.41641535 -275.72924074 113.76981937 -269.6875 117.4375 C-268.0640471 118.45327045 -266.44282692 119.47262098 -264.82421875 120.49609375 C-264.11354248 120.93107178 -263.40286621 121.3660498 -262.6706543 121.81420898 C-261 123 -261 123 -260 125 C-261.45833333 124.5625 -262.91666667 124.125 -264.375 123.6875 C-265.29410156 123.41679688 -266.21320313 123.14609375 -267.16015625 122.8671875 C-268.92992323 122.32676347 -270.69051289 121.75394244 -272.43359375 121.1328125 C-279.33484287 118.75307142 -285.74462007 118.69295414 -293 119 C-294.66081623 115.28293511 -296.12585343 111.65816847 -297.29296875 107.7578125 C-298.88482562 102.95370165 -301.13974676 98.96956297 -304 94.8125 C-304.71542969 93.76932617 -304.71542969 93.76932617 -305.4453125 92.70507812 C-309.5914224 86.97975621 -314.17125399 83.21472843 -321 81 C-321.99 81 -322.98 81 -324 81 C-325.73928751 82.8115426 -325.73928751 82.8115426 -327.25 85.1875 C-327.79140625 85.96480469 -328.3328125 86.74210937 -328.890625 87.54296875 C-330.28352539 90.62794883 -330.07953658 91.8197436 -329 95 C-327.50049009 97.93012342 -325.84626737 100.73642491 -324.1796875 103.57421875 C-323.79039062 104.37472656 -323.40109375 105.17523438 -323 106 C-323.33 106.66 -323.66 107.32 -324 108 C-325.98010159 106.68889201 -327.95911037 105.37618664 -329.9375 104.0625 C-330.50146484 103.68931641 -331.06542969 103.31613281 -331.64648438 102.93164062 C-335.88671875 100.11328125 -335.88671875 100.11328125 -337 99 C-337.53293835 100.74635165 -338.05090663 102.49727652 -338.5625 104.25 C-338.99755859 105.71179688 -338.99755859 105.71179688 -339.44140625 107.203125 C-340.12675835 110.63467816 -339.85557474 112.71137547 -337.90844727 115.64404297 C-337.46557373 116.17143066 -337.0227002 116.69881836 -336.56640625 117.2421875 C-336.08236328 117.83386719 -335.59832031 118.42554687 -335.09960938 119.03515625 C-334.08031867 120.25519671 -333.05950026 121.47396256 -332.03710938 122.69140625 C-329.64553779 125.61973161 -328.12143739 127.56051231 -327.09765625 131.265625 C-326.20890125 134.34187434 -326.20890125 134.34187434 -322.7421875 135.6796875 C-321.46087617 136.10238815 -320.17115295 136.50027063 -318.875 136.875 C-318.21628906 137.08640625 -317.55757812 137.2978125 -316.87890625 137.515625 C-315.25933144 138.03201117 -313.63042298 138.51896137 -312 139 C-312 139.33 -312 139.66 -312 140 C-315.18653222 140.20521899 -318.37135052 140.32822933 -321.5625 140.4375 C-322.45775391 140.49615234 -323.35300781 140.55480469 -324.27539062 140.61523438 C-330.90273091 140.78516618 -330.90273091 140.78516618 -334.07373047 138.51611328 C-335.81892262 136.7448248 -337.42271917 134.92107138 -339 133 C-342.50878524 129.64560131 -346.07309391 129.31834983 -350.75 128.875 C-352.8046875 128.65234375 -352.8046875 128.65234375 -354.859375 128.4296875 C-355.53419922 128.36104492 -356.20902344 128.29240234 -356.90429688 128.22167969 C-360.27606996 127.86501963 -363.63684812 127.42981986 -367 127 C-366.52269162 125.5410574 -366.04308958 124.08286504 -365.5625 122.625 C-365.29566406 121.81289062 -365.02882813 121.00078125 -364.75390625 120.1640625 C-364 118 -364 118 -363 116 C-370.83367903 118.31157742 -374.09320512 122.19512225 -378.77075195 128.5090332 C-385.4625394 137.4642705 -394.11272506 144.21969302 -402.78515625 151.1875 C-405.02753567 152.96126357 -405.02753567 152.96126357 -407 155 C-409.61183674 155.63716066 -412.18426357 156.17614616 -414.82421875 156.6640625 C-416.42672131 156.98423388 -418.02892634 157.30589741 -419.63085938 157.62890625 C-422.15184112 158.13031428 -424.67315015 158.62235444 -427.20092773 159.08837891 C-439.69287642 161.08640768 -439.69287642 161.08640768 -449.01489258 169.01318359 C-450.08208438 170.96345643 -450.08208438 170.96345643 -450.46362305 173.12353516 C-451.35800803 176.25245778 -454.38210827 177.25473885 -457 179 C-458.99212671 180.01559401 -460.9911515 181.01789629 -463 182 C-460.31025046 183.70350804 -458.56324518 184.11780853 -455.44140625 183.46484375 C-452.93638433 182.7009009 -450.46303635 181.88956264 -448 181 C-448.33 182.32 -448.66 183.64 -449 185 C-446.36 184.01 -443.72 183.02 -441 182 C-442.23601893 188.18009467 -444.30095661 190.8117222 -449 195 C-448.34 195.66 -447.68 196.32 -447 197 C-448.36125 197.433125 -448.36125 197.433125 -449.75 197.875 C-452.32202908 198.76531776 -454.61346766 199.71494413 -457 201 C-453.57905758 203.28062828 -452.31812778 203.21925007 -448.3125 203.125 C-447.31863281 203.10695312 -446.32476562 203.08890625 -445.30078125 203.0703125 C-444.54152344 203.04710937 -443.78226562 203.02390625 -443 203 C-444.63412443 204.70840281 -445.86906094 205.93453047 -448 207 C-445.57080135 207.13440778 -445.57080135 207.13440778 -443 206 C-441.61706907 203.44481903 -440.78208351 200.79133871 -440 198 C-438.66666667 200 -437.33333333 202 -436 204 C-435.896875 203.484375 -435.79375 202.96875 -435.6875 202.4375 C-434.75736134 199.13973565 -433.38604488 196.13366668 -432 193 C-429.04816899 195.95183101 -428.91336012 198.95511947 -428 203 C-427.34 203 -426.68 203 -426 203 C-425.34 201.35 -424.68 199.7 -424 198 C-423.34 198 -422.68 198 -422 198 C-421.34 199.98 -420.68 201.96 -420 204 C-417.88240175 200.82360262 -417.66307156 198.73199609 -417.28515625 195.0078125 C-416.92522329 192.47349001 -416.08285428 190.31008912 -415 188 C-414.34 188 -413.68 188 -413 188 C-410.96309933 193.62184586 -409.46617548 199.1396341 -408.4296875 205.03125 C-408.1872214 206.99280014 -408.1872214 206.99280014 -407 208 C-406.80664062 207.14535156 -406.61328125 206.29070312 -406.4140625 205.41015625 C-406.15367187 204.30542969 -405.89328125 203.20070312 -405.625 202.0625 C-405.36976563 200.96035156 -405.11453125 199.85820312 -404.8515625 198.72265625 C-404.57054687 197.82417969 -404.28953125 196.92570313 -404 196 C-403.34 195.67 -402.68 195.34 -402 195 C-401.67 196.65 -401.34 198.3 -401 200 C-400.34 200 -399.68 200 -399 200 C-398.01 197.03 -398.01 197.03 -397 194 C-397.66 193.67 -398.32 193.34 -399 193 C-398.34 192.34 -397.68 191.68 -397 191 C-395.96157435 188.68351201 -394.9578025 186.35096976 -394 184 C-393.01 184 -392.02 184 -391 184 C-390.01 186.475 -390.01 186.475 -389 189 C-387.68 188.34 -386.36 187.68 -385 187 C-384.67 187.66 -384.34 188.32 -384 189 C-382.40239868 183.35313243 -380.89350979 177.80781365 -380 172 C-379.67 171.34 -379.34 170.68 -379 170 C-378.34 170 -377.68 170 -377 170 C-376.49490792 172.24886238 -375.99610821 174.49913869 -375.5 176.75 C-375.2215625 178.00296875 -374.943125 179.2559375 -374.65625 180.546875 C-374 184 -374 184 -374 188 C-372.41471446 184.2849178 -371.3236812 180.6115904 -370.375 176.6875 C-370.11460937 175.61886719 -369.85421875 174.55023438 -369.5859375 173.44921875 C-369.39257812 172.64097656 -369.19921875 171.83273438 -369 171 C-366.32098068 173.31881505 -365.33795597 175.31814468 -364.3125 178.6875 C-364.06113281 179.49574219 -363.80976563 180.30398437 -363.55078125 181.13671875 C-363.36902344 181.75160156 -363.18726563 182.36648437 -363 183 C-362.87882813 182.26394531 -362.75765625 181.52789062 -362.6328125 180.76953125 C-362.46523438 179.79371094 -362.29765625 178.81789062 -362.125 177.8125 C-361.88136719 176.36810547 -361.88136719 176.36810547 -361.6328125 174.89453125 C-361.01960483 172.08967396 -360.14333657 169.62775253 -359 167 C-358.34 167 -357.68 167 -357 167 C-356.80664062 167.65226563 -356.61328125 168.30453125 -356.4140625 168.9765625 C-355.01359552 173.6771398 -353.58791274 178.35840891 -352 183 C-351.773125 182.443125 -351.54625 181.88625 -351.3125 181.3125 C-349.64103234 178.36753316 -347.44723648 176.31843456 -345 174 C-343.66666667 178 -342.33333333 182 -341 186 C-340.54625 185.175 -340.0925 184.35 -339.625 183.5 C-339.08875 182.675 -338.5525 181.85 -338 181 C-337.34 181 -336.68 181 -336 181 C-335.01 185.29 -334.02 189.58 -333 194 C-331.68 194 -330.36 194 -329 194 C-327.50178941 197.37097383 -327 199.20442119 -327 203 C-325.1117247 198.70846522 -323.45292778 194.4625639 -322 190 C-321.67 189.34 -321.34 188.68 -321 188 C-320.34 188 -319.68 188 -319 188 C-317.66932939 191.04153282 -316.70780588 194.02977394 -315.9375 197.25 C-315.39837692 200.77312166 -315.39837692 200.77312166 -314 202 C-313.01 201.01 -312.02 200.02 -311 199 C-310.566875 200.3921875 -310.566875 200.3921875 -310.125 201.8125 C-309.1125 205.09791667 -309.1125 205.09791667 -307 208 C-306.93941406 207.43152344 -306.87882813 206.86304688 -306.81640625 206.27734375 C-306.55306066 203.85051288 -306.27640699 201.42537399 -306 199 C-305.814375 197.2675 -305.814375 197.2675 -305.625 195.5 C-304.84977383 191.15873347 -303.49291026 187.14071337 -302 183 C-301.34 183 -300.68 183 -300 183 C-299.79503906 183.69867188 -299.59007812 184.39734375 -299.37890625 185.1171875 C-298.97478516 186.48230469 -298.97478516 186.48230469 -298.5625 187.875 C-298.29566406 188.77992188 -298.02882813 189.68484375 -297.75390625 190.6171875 C-297.07386174 192.98275381 -297.07386174 192.98275381 -296 195 C-295.89042969 194.18015625 -295.78085937 193.3603125 -295.66796875 192.515625 C-295.50941406 191.43796875 -295.35085938 190.3603125 -295.1875 189.25 C-295.03667969 188.18265625 -294.88585937 187.1153125 -294.73046875 186.015625 C-293.98679593 182.94548906 -293.07234528 181.33919522 -291 179 C-288.17175651 184.06452904 -286.71319721 188.1755561 -286 194 C-285.34 194.33 -284.68 194.66 -284 195 C-283.855625 194.2575 -283.71125 193.515 -283.5625 192.75 C-283 190 -283 190 -282.3125 187.8125 C-282.1578125 186.9153125 -282.1578125 186.9153125 -282 186 C-282.66 185.34 -283.32 184.68 -284 184 C-285.02304948 182.34738161 -286.02616054 180.68208635 -287 179 C-285.73160474 178.49384702 -284.46016898 177.99530901 -283.1875 177.5 C-282.12595703 177.08234375 -282.12595703 177.08234375 -281.04296875 176.65625 C-279 176 -279 176 -276 176 C-276 175.34 -276 174.68 -276 174 C-276.5775 173.896875 -277.155 173.79375 -277.75 173.6875 C-280.37757361 172.88463029 -281.95923541 171.82965102 -284 170 C-284.33 169.01 -284.66 168.02 -285 167 C-283.68 166.67 -282.36 166.34 -281 166 C-280.67 164.68 -280.34 163.36 -280 162 C-279.34 162 -278.68 162 -278 162 C-278 161.34 -278 160.68 -278 160 C-277.34 159.67 -276.68 159.34 -276 159 C-277.32 158.67 -278.64 158.34 -280 158 C-280 157.01 -280 156.02 -280 155 C-278.0625 153.375 -278.0625 153.375 -276 152 C-275.67 151.67 -275.34 151.34 -275 151 C-275.99 150.01 -276.98 149.02 -278 148 C-277.01 147.67 -276.02 147.34 -275 147 C-274.34 146.01 -273.68 145.02 -273 144 C-272.34 144 -271.68 144 -271 144 C-271.33 143.01 -271.66 142.02 -272 141 C-271.01 140.67 -270.02 140.34 -269 140 C-269 139.01 -269 138.02 -269 137 C-268.34 137 -267.68 137 -267 137 C-264.95830515 139.90548882 -264 141.40142046 -264 145 C-263.02149805 146.02104551 -262.02019573 147.0206121 -261 148 C-260.67 148.99 -260.34 149.98 -260 151 C-261.65 151.33 -263.3 151.66 -265 152 C-263.68 152.33 -262.36 152.66 -261 153 C-261.33 153.99 -261.66 154.98 -262 156 C-259.38058783 157.74627478 -257.96175123 158.38722388 -255 159 C-256.1993793 162.41361802 -257.33297472 164.56488996 -260 167 C-260.33 167.66 -260.66 168.32 -261 169 C-259.68 169.66 -258.36 170.32 -257 171 C-257.33 171.66 -257.66 172.32 -258 173 C-255.69 173 -253.38 173 -251 173 C-251.433125 173.8353125 -251.433125 173.8353125 -251.875 174.6875 C-253.0413253 177.08494645 -254.0339881 179.51596939 -255 182 C-255.66 182 -256.32 182 -257 182 C-257 182.66 -257 183.32 -257 184 C-257.66 184.33 -258.32 184.66 -259 185 C-257.02 185 -255.04 185 -253 185 C-253 185.99 -253 186.98 -253 188 C-251.35 187.34 -249.7 186.68 -248 186 C-251.15804598 195.92528736 -251.15804598 195.92528736 -257 199 C-254.36 199.33 -251.72 199.66 -249 200 C-249 200.66 -249 201.32 -249 202 C-248.01 201.67 -247.02 201.34 -246 201 C-244 205.75 -244 205.75 -244 208 C-240.99740483 208.33218192 -240.99740483 208.33218192 -239.3125 206.5 C-238.879375 206.005 -238.44625 205.51 -238 205 C-237.34 206.65 -236.68 208.3 -236 210 C-235.01 209.67 -234.02 209.34 -233 209 C-230.77950983 213.05480813 -229.657575 216.44166456 -229 221 C-221.31631128 223.63601 -213.64634795 225.60398709 -205.6875 227.1875 C-204.85250977 227.35411133 -204.01751953 227.52072266 -203.15722656 227.69238281 C-199.25903767 228.44662119 -195.4077592 229.08467917 -191.45703125 229.48828125 C-190.31621094 229.65714844 -189.17539062 229.82601562 -188 230 C-187.67 230.66 -187.34 231.32 -187 232 C-200.2 232 -213.4 232 -227 232 C-220.1454515 236.39854312 -220.1454515 236.39854312 -213 239 C-213 239.66 -213 240.32 -213 241 C-231.46896968 239.45583972 -231.46896968 239.45583972 -239.93359375 235.70703125 C-242.85989174 234.70578373 -244.49913563 235.75672302 -247.1875 237.0625 C-248.0846875 237.5265625 -248.0846875 237.5265625 -249 238 C-247.68 238.66 -246.36 239.32 -245 240 C-245 240.66 -245 241.32 -245 242 C-242.36 241.67 -239.72 241.34 -237 241 C-238.16279392 244.48838175 -238.81767437 244.7762603 -241.875 246.5625 C-242.57367188 246.97628906 -243.27234375 247.39007813 -243.9921875 247.81640625 C-244.65476562 248.20699219 -245.31734375 248.59757813 -246 249 C-247.485 249.99 -247.485 249.99 -249 251 C-251.69921875 251.4140625 -251.69921875 251.4140625 -254.6875 251.625 C-256.17830078 251.73714844 -256.17830078 251.73714844 -257.69921875 251.8515625 C-258.45847656 251.90054688 -259.21773438 251.94953125 -260 252 C-259.24203125 252.1134375 -258.4840625 252.226875 -257.703125 252.34375 C-252.68041394 253.23385069 -247.72271833 254.36689361 -242.75 255.5 C-241.74453125 255.72558594 -240.7390625 255.95117188 -239.703125 256.18359375 C-238.7440625 256.40144531 -237.785 256.61929687 -236.796875 256.84375 C-235.92385742 257.04162109 -235.05083984 257.23949219 -234.15136719 257.44335938 C-232 258 -232 258 -230 259 C-230.33 259.66 -230.66 260.32 -231 261 C-286.74872395 255.30191335 -286.74872395 255.30191335 -307.62890625 244.66015625 C-317.42203819 239.73731175 -327.96319588 242.03350239 -338.25 244.375 C-339.27351562 244.59671875 -340.29703125 244.8184375 -341.3515625 245.046875 C-345.76114305 246.01040803 -350.13264521 247.02893104 -354.484375 248.2265625 C-357.81521452 248.9593472 -358.9118967 248.95116292 -362 248 C-353.50282187 243.87041903 -345.12200038 240.15376926 -336.12109375 237.23828125 C-332.64359302 235.85859698 -330.03494003 234.16781431 -327 232 C-328.93939453 231.67128906 -328.93939453 231.67128906 -330.91796875 231.3359375 C-340.38818513 229.63912578 -348.68845064 227.84974889 -357.17578125 223.171875 C-362.76788487 220.85150005 -367.86115752 221.99865173 -373.421875 223.8984375 C-374.61296875 224.29546875 -375.8040625 224.6925 -377.03125 225.1015625 C-378.87203125 225.73191406 -378.87203125 225.73191406 -380.75 226.375 C-389.12012963 229.22440583 -397.23195178 231.73490232 -406 233 C-405.13375 233.49371094 -404.2675 233.98742187 -403.375 234.49609375 C-402.26125 235.13675781 -401.1475 235.77742187 -400 236.4375 C-398.88625 237.07558594 -397.7725 237.71367187 -396.625 238.37109375 C-395.75875 238.90863281 -394.8925 239.44617188 -394 240 C-394 240.33 -394 240.66 -394 241 C-406.63035382 241.94530715 -417.78003733 238.13761922 -429.19140625 233.10546875 C-433.35709938 231.46584266 -437.58423106 230.65454982 -442 230 C-442.66 231.65 -443.32 233.3 -444 235 C-442.35 235 -440.7 235 -439 235 C-439 236.32 -439 237.64 -439 239 C-437.35 239.66 -435.7 240.32 -434 241 C-436.82553984 245.23830976 -439.12180888 244.97715348 -444 246 C-439.71 247.32 -435.42 248.64 -431 250 C-432.65403725 253.3080745 -433.50602705 254.61446065 -436 257 C-436.33 257.66 -436.66 258.32 -437 259 C-439.64 259 -442.28 259 -445 259 C-440.73422431 261.9540719 -440.73422431 261.9540719 -436 264 C-436 264.66 -436 265.32 -436 266 C-434.58344207 266.0272415 -433.16672955 266.04650467 -431.75 266.0625 C-430.56664062 266.07990234 -430.56664062 266.07990234 -429.359375 266.09765625 C-427.09308998 266.00385306 -425.1711105 265.63241063 -423 265 C-424.36983503 268.16115776 -424.9890638 268.9927092 -428 271 C-420.76687162 271.44587778 -414.53821607 271.04448232 -407.5625 269 C-392.36914456 264.7579278 -377.06164535 266.72707347 -361.77783203 269.49926758 C-351.21717609 271.33125143 -340.72463572 271.61829238 -330.02734375 271.82421875 C-326.55806841 271.89535741 -323.17294946 272.03288723 -319.734375 272.5 C-308.68870097 273.9789187 -297.9739827 273.43121528 -287.125 271 C-266.3269141 266.55658522 -246.39392641 267.65595239 -226.51025391 275.10400391 C-223.03131164 276.34575825 -219.48801144 277.31704613 -215.92260742 278.27807617 C-214 279 -214 279 -213 281 C-218.73281046 280.621136 -224.45593149 280.21674374 -230.15625 279.48828125 C-231.2227478 279.35268799 -231.2227478 279.35268799 -232.31079102 279.21435547 C-234.33189092 278.95124821 -236.35154431 278.67709874 -238.37109375 278.40234375 C-249.69176718 277.21753236 -260.86898453 278.23108081 -272.125 279.5625 C-274.66851476 279.86196191 -277.2127696 280.15522203 -279.7578125 280.44140625 C-281.41514404 280.63778687 -281.41514404 280.63778687 -283.10595703 280.83813477 C-286 281 -286 281 -290 280 C-286.7 278.68 -283.4 277.36 -280 276 C-281.33724121 276.06856201 -282.67448242 276.13712402 -284.05224609 276.20776367 C-297.24439473 276.86083362 -310.41649684 277.27201239 -323.625 277.3125 C-324.58247131 277.31644775 -325.53994263 277.32039551 -326.52642822 277.32446289 C-341.55760504 277.35303042 -356.27365821 276.44873447 -371.16650391 274.4230957 C-382.70854464 272.86062075 -394.33095663 271.75375605 -405.8125 274.3125 C-406.95332031 274.55613281 -408.09414063 274.79976563 -409.26953125 275.05078125 C-411.22190142 275.54756235 -413.17414673 276.05831407 -415.08447266 276.69799805 C-422.43384946 279.14185549 -429.86505499 280.06878816 -437.52392578 280.93530273 C-439.76068764 281.18871083 -441.99553857 281.45556738 -444.23046875 281.72460938 C-460.95862578 283.69424948 -460.95862578 283.69424948 -465 281 C-466.65 280.67 -468.3 280.34 -470 280 C-470 284.62 -470 289.24 -470 294 C-468.96875 294.0825 -467.9375 294.165 -466.875 294.25 C-462.97138711 294.72771486 -459.38429476 295.72972648 -455.625 296.875 C-449.09937262 298.8284416 -442.60751266 300.01193197 -435.86572266 300.96044922 C-430.20329597 301.79670403 -430.20329597 301.79670403 -428 304 C-432.27081848 304.02941647 -436.54161034 304.04693715 -440.8125 304.0625 C-442.00810547 304.07087891 -443.20371094 304.07925781 -444.43554688 304.08789062 C-450.82567802 304.10530243 -457.06983588 303.87103474 -463.42529297 303.22558594 C-471.14839485 302.54891742 -478.54567654 303.14488962 -486.1875 304.3125 C-487.09298584 304.44495117 -487.99847168 304.57740234 -488.93139648 304.71386719 C-495.70603699 305.73117033 -502.38754016 307.02793556 -509.06640625 308.546875 C-511.83575102 308.97462998 -513.39937193 308.94105857 -516 308 C-514.94039062 307.65066406 -513.88078125 307.30132812 -512.7890625 306.94140625 C-511.40101541 306.48185012 -510.01299601 306.02221036 -508.625 305.5625 C-507.57699219 305.21735352 -507.57699219 305.21735352 -506.5078125 304.86523438 C-502.68189163 303.61264601 -502.68189163 303.61264601 -499 302 C-507.58 302.66 -516.16 303.32 -525 304 C-524 302 -524 302 -521.65844727 301.16210938 C-520.63807373 300.89205078 -519.6177002 300.62199219 -518.56640625 300.34375 C-517.44169922 300.04339844 -516.31699219 299.74304688 -515.15820312 299.43359375 C-513.97162109 299.12550781 -512.78503906 298.81742187 -511.5625 298.5 C-510.41072266 298.19191406 -509.25894531 297.88382812 -508.07226562 297.56640625 C-497.87291454 294.87049156 -488.57354641 292.69789867 -478 293 C-478 288.38 -478 283.76 -478 279 C-479.18851562 279.17917969 -480.37703125 279.35835938 -481.6015625 279.54296875 C-491.36585966 280.85270426 -500.40549431 281.1217388 -510.1875 279.75 C-511.14930176 279.6161792 -512.11110352 279.4823584 -513.10205078 279.34448242 C-518.09585892 278.56020716 -518.09585892 278.56020716 -520 278 C-520.33 277.34 -520.66 276.68 -521 276 C-523.02463255 275.34786708 -523.02463255 275.34786708 -525 275 C-525 274.34 -525 273.68 -525 273 C-522.36 272.34 -519.72 271.68 -517 271 C-517.309375 270.236875 -517.61875 269.47375 -517.9375 268.6875 C-518.67893593 266.81210323 -519.36228217 264.91315348 -520 263 C-515.05 263.33 -510.1 263.66 -505 264 C-506.65 263.01 -508.3 262.02 -510 261 C-510 260.67 -510 260.34 -510 260 C-504.72 260 -499.44 260 -494 260 C-494 259.34 -494 258.68 -494 258 C-495.55847656 257.87044922 -495.55847656 257.87044922 -497.1484375 257.73828125 C-505.68402875 256.91707873 -512.59200896 255.66560974 -520 251 C-520 250.67 -520 250.34 -520 250 C-519.10796875 249.95101562 -518.2159375 249.90203125 -517.296875 249.8515625 C-515.54117188 249.73941406 -515.54117188 249.73941406 -513.75 249.625 C-512.00976562 249.52058594 -512.00976562 249.52058594 -510.234375 249.4140625 C-507.29305666 249.03751692 -505.50050989 248.5225877 -503 247 C-504.32 246.34 -505.64 245.68 -507 245 C-506.67 244.34 -506.34 243.68 -506 243 C-503.36 243 -500.72 243 -498 243 C-498 242.34 -498 241.68 -498 241 C-497.34 240.34 -496.68 239.68 -496 239 C-497.216875 239.020625 -498.43375 239.04125 -499.6875 239.0625 C-502.91977322 239.06824116 -505.84934741 238.78766315 -509 238 C-509.33 237.01 -509.66 236.02 -510 235 C-510.99 234.67 -511.98 234.34 -513 234 C-513 233.34 -513 232.68 -513 232 C-513.78375 231.855625 -514.5675 231.71125 -515.375 231.5625 C-518 231 -518 231 -520 230 C-521.70363822 229.77377919 -523.41328701 229.59111527 -525.125 229.4375 C-526.03507813 229.35371094 -526.94515625 229.26992187 -527.8828125 229.18359375 C-528.58148437 229.12300781 -529.28015625 229.06242188 -530 229 C-527.2604959 226.2604959 -524.49309719 226.34243131 -520.8046875 225.9296875 C-519.74352219 225.80075607 -519.74352219 225.80075607 -518.66091919 225.66921997 C-516.39982868 225.39638407 -514.13753437 225.13556334 -511.875 224.875 C-510.34235358 224.69219543 -508.80979993 224.50861132 -507.27734375 224.32421875 C-503.51924604 223.87375774 -499.76002497 223.43406775 -496 223 C-496 222.67 -496 222.34 -496 222 C-499.3 221.67 -502.6 221.34 -506 221 C-506 220.34 -506 219.68 -506 219 C-504.68 218.67 -503.36 218.34 -502 218 C-504.475 216.02 -504.475 216.02 -507 214 C-506.28714844 214.03480469 -505.57429688 214.06960937 -504.83984375 214.10546875 C-498.68887544 214.27931846 -494.44620285 213.90464152 -489 211 C-489.33 210.34 -489.66 209.68 -490 209 C-491.66679687 209 -493.33356473 209.0277826 -495 209.0625 C-498 209 -498 209 -500 208 C-500 207.34 -500 206.68 -500 206 C-498.515 205.01 -498.515 205.01 -497 204 C-498.65 203.67 -500.3 203.34 -502 203 C-502 202.34 -502 201.68 -502 201 C-501.01 200.67 -500.02 200.34 -499 200 C-501.475 198.02 -501.475 198.02 -504 196 C-503.67 195.34 -503.34 194.68 -503 194 C-501.783125 194.04125 -500.56625 194.0825 -499.3125 194.125 C-495.77730896 194.09992772 -493.02420807 194.01613871 -490 192 C-489.10169161 188.94727535 -489.10169161 188.94727535 -489 186 C-491.31 185.34 -493.62 184.68 -496 184 C-495.67 183.34 -495.34 182.68 -495 182 C-496.32 181.67 -497.64 181.34 -499 181 C-499 180.34 -499 179.68 -499 179 C-498.34 178.67 -497.68 178.34 -497 178 C-497.99 177.195625 -498.98 176.39125 -500 175.5625 C-500.99 174.716875 -501.98 173.87125 -503 173 C-503 172.67 -503 172.34 -503 172 C-502.05125 171.87625 -501.1025 171.7525 -500.125 171.625 C-496.91332809 171.28312823 -496.91332809 171.28312823 -495 169 C-493.31238142 168.39688385 -491.59985524 167.86149763 -489.875 167.375 C-488.96492188 167.11460937 -488.05484375 166.85421875 -487.1171875 166.5859375 C-486.41851562 166.39257812 -485.71984375 166.19921875 -485 166 C-485 165.34 -485 164.68 -485 164 C-486.6396875 163.8453125 -486.6396875 163.8453125 -488.3125 163.6875 C-492.06399892 162.988068 -492.69835795 162.74005005 -495 160 C-497.09989652 158.82425289 -497.09989652 158.82425289 -499 158 C-498.34 157.67 -497.68 157.34 -497 157 C-498.32 156.34 -499.64 155.68 -501 155 C-501 154.67 -501 154.34 -501 154 C-498.03 153.67 -495.06 153.34 -492 153 C-492.33 151.68 -492.66 150.36 -493 149 C-488.05 148.01 -488.05 148.01 -483 147 C-485.97 147 -488.94 147 -492 147 C-491 145 -491 145 -488 143 C-487.01 143 -486.02 143 -485 143 C-486.62366466 139.75267068 -489.75387839 139.29844864 -493 138 C-493 137.34 -493 136.68 -493 136 C-491.68 136 -490.36 136 -489 136 C-489 135.34 -489 134.68 -489 134 C-488.01 133.67 -487.02 133.34 -486 133 C-486 132.34 -486 131.68 -486 131 C-484.02 130.67 -482.04 130.34 -480 130 C-480 129.67 -480 129.34 -480 129 C-482.64 128.34 -485.28 127.68 -488 127 C-488 126.34 -488 125.68 -488 125 C-485.525 124.01 -485.525 124.01 -483 123 C-483 122.01 -483 121.02 -483 120 C-480.5 118.3125 -480.5 118.3125 -478 117 C-478.33 116.01 -478.66 115.02 -479 114 C-478.566875 113.46375 -478.13375 112.9275 -477.6875 112.375 C-475.21881682 108.900557 -474.75230035 105.14207724 -474 101 C-473.34 101 -472.68 101 -472 101 C-471.79503906 101.68707031 -471.59007812 102.37414062 -471.37890625 103.08203125 C-471.10949219 103.98308594 -470.84007812 104.88414063 -470.5625 105.8125 C-470.29566406 106.70582031 -470.02882813 107.59914063 -469.75390625 108.51953125 C-469.19612127 110.35473055 -468.60655425 112.18033726 -468 114 C-467.01 114.495 -467.01 114.495 -466 115 C-466.33 116.65 -466.66 118.3 -467 120 C-466.01 120.33 -465.02 120.66 -464 121 C-464 121.99 -464 122.98 -464 124 C-462.02 124.99 -462.02 124.99 -460 126 C-460.63808594 126.19335938 -461.27617187 126.38671875 -461.93359375 126.5859375 C-462.75988281 126.84632813 -463.58617187 127.10671875 -464.4375 127.375 C-465.26121094 127.63023437 -466.08492187 127.88546875 -466.93359375 128.1484375 C-469.17798016 128.80882227 -469.17798016 128.80882227 -470 131 C-467.36 131.66 -464.72 132.32 -462 133 C-462 133.66 -462 134.32 -462 135 C-462.66 135 -463.32 135 -464 135 C-464 135.66 -464 136.32 -464 137 C-462.02 137.33 -460.04 137.66 -458 138 C-458.33 139.65 -458.66 141.3 -459 143 C-455.535 142.01 -455.535 142.01 -452 141 C-452.5762962 144.88999932 -454.36736021 147.14170537 -457 150 C-459.25 151.3125 -459.25 151.3125 -461 152 C-460.67 152.99 -460.34 153.98 -460 155 C-460.99 155.33 -461.98 155.66 -463 156 C-461.03177114 157.96822886 -457.65191291 157.66248381 -455 158 C-455.66 159.32 -456.32 160.64 -457 162 C-452.5179371 161.45350794 -449.24021652 160.32195923 -445.2890625 158.15625 C-444.21744873 157.57407715 -443.14583496 156.9919043 -442.04174805 156.39208984 C-440.91422119 155.7677002 -439.78669434 155.14331055 -438.625 154.5 C-437.44542086 153.85433606 -436.26548635 153.20932094 -435.08520508 152.56494141 C-431.71672862 150.72207746 -428.3574617 148.86286327 -425 147 C-424.19578613 146.55495117 -423.39157227 146.10990234 -422.56298828 145.65136719 C-419.36434125 143.87757881 -416.17873201 142.0845903 -413.0078125 140.26171875 C-409.9349687 138.50276425 -406.81710023 136.8478748 -403.6796875 135.20703125 C-394.22823495 130.17799919 -386.94266616 126.18632772 -381.10546875 117.02734375 C-378.55482605 113.35990758 -375.61801201 110.54227286 -372.3125 107.5625 C-371.77689453 107.07845703 -371.24128906 106.59441406 -370.68945312 106.09570312 C-367.19421098 102.98160263 -363.60882748 99.98120531 -360 97 C-360.825 96.21625 -361.65 95.4325 -362.5 94.625 C-365 92 -365 92 -365 90 C-365.59385498 89.73791748 -366.18770996 89.47583496 -366.79956055 89.20581055 C-369.11671467 87.93604196 -370.4533766 86.66731724 -372.20703125 84.70703125 C-372.79419922 84.07732422 -373.38136719 83.44761719 -373.98632812 82.79882812 C-375.20429837 81.47404124 -376.41011795 80.13798029 -377.60351562 78.79101562 C-379.3320059 76.96073857 -380.8917896 75.37922166 -383 74 C-386.65837497 74.2023117 -386.65837497 74.2023117 -390 75 C-392.21484375 73.56640625 -392.21484375 73.56640625 -393.9375 71.5625 C-394.81728516 70.57443359 -394.81728516 70.57443359 -395.71484375 69.56640625 C-396.13894531 69.04949219 -396.56304687 68.53257813 -397 68 C-407.64010528 71.88595149 -415.28155332 81.04647373 -423 89 C-424 87 -424 87 -423.25 84.27734375 C-420.75627379 77.61441904 -418.12215648 72.48579239 -413.515625 67.078125 C-411.17527155 63.86918676 -410.6354792 60.88348397 -410 57 C-414.72100957 59.9236709 -419.39726582 62.89315443 -424 66 C-422.42240151 62.56164433 -420.40634809 59.62137088 -418.1875 56.5625 C-417.18783203 55.17224609 -417.18783203 55.17224609 -416.16796875 53.75390625 C-414 51 -414 51 -411.2890625 48.640625 C-408.36533592 45.26786192 -408.224338 42.46480098 -408.1875 38.1875 C-408.16236328 37.49462891 -408.13722656 36.80175781 -408.11132812 36.08789062 C-408.05286737 34.39252878 -408.02346953 32.69620713 -408 31 C-411.52381687 33.54604597 -411.52381687 33.54604597 -414 37 C-414.66 37 -415.32 37 -416 37 C-416.30448975 31.82367426 -415.73203214 29.32571755 -413 25 C-412.87477951 22.40090172 -412.87477951 22.40090172 -413 20 C-413.81082031 20.845625 -414.62164062 21.69125 -415.45703125 22.5625 C-416.57349088 23.71031134 -417.69213817 24.85599722 -418.8125 26 C-419.39547852 26.59578857 -419.97845703 27.19157715 -420.57910156 27.80541992 C-424.25357421 31.48039101 -427.90723764 34.46488053 -432.25 37.3125 C-435.76987705 39.52194631 -435.76987705 39.52194631 -437.5859375 43.015625 C-437.59882813 43.69109375 -437.61171875 44.3665625 -437.625 45.0625 C-438 49 -438 49 -439.78125 51.0234375 C-444.4155817 54.80814172 -447.99026326 56.87213326 -454 57 C-453.04270084 55.87411986 -452.08412105 54.7493285 -451.125 53.625 C-450.59132813 52.99851563 -450.05765625 52.37203125 -449.5078125 51.7265625 C-448.38567993 50.44163349 -447.20628025 49.20628025 -446 48 C-445.35232207 45.42938689 -445.35232207 45.42938689 -445 43 C-446.98 43 -448.96 43 -451 43 C-450.67 40.36 -450.34 37.72 -450 35 C-457.3714705 37.68053473 -462.10691826 40.23826806 -466.125 47.0625 C-466.89623047 48.31776492 -467.66980248 49.57159324 -468.4453125 50.82421875 C-468.85555664 51.49630371 -469.26580078 52.16838867 -469.68847656 52.86083984 C-478.07928581 66.54666832 -487.01875086 77.76571437 -499.12890625 88.35351562 C-501.53530246 90.47104381 -503.85303858 92.67876327 -506.1875 94.875 C-510.09290765 98.35619958 -514.20828443 101.49014537 -518.4375 104.5625 C-519.04166748 105.00513184 -519.64583496 105.44776367 -520.26831055 105.90380859 C-524.63494 109 -524.63494 109 -528 109 C-520.80617532 97.5386522 -512.66963907 88.22815573 -502.89257812 78.90234375 C-500.24238324 76.23847397 -497.84385025 73.38391571 -495.45410156 70.48632812 C-494.97424805 69.99583984 -494.49439453 69.50535156 -494 69 C-493.34 69 -492.68 69 -492 69 C-491.67322266 67.824375 -491.67322266 67.824375 -491.33984375 66.625 C-489.5551883 61.79654443 -487.08697903 57.47626008 -484.5625 53 C-483.58359697 51.25058066 -482.6057063 49.50059442 -481.62890625 47.75 C-481.16629395 46.92717529 -480.70368164 46.10435059 -480.22705078 45.2565918 C-479.23103329 43.42487877 -478.33227644 41.54052281 -477.46484375 39.64453125 C-475.72378955 36.50134807 -473.83729181 34.87732841 -471 32.6875 C-467.94784175 30.31763639 -464.95931346 27.96361057 -462.078125 25.38671875 C-461.14484375 24.55785156 -460.2115625 23.72898437 -459.25 22.875 C-458.40953125 22.10929687 -457.5690625 21.34359375 -456.703125 20.5546875 C-453.01356239 18.43265583 -451.07421866 18.99711541 -447 20 C-443.91365945 20.99286267 -440.90078294 22.11528954 -437.8671875 23.2578125 C-434.61927523 24.09855273 -433.12914007 24.19512323 -430 23 C-427.28607053 20.69575154 -427.28607053 20.69575154 -424.6875 17.8125 C-414.07402283 6.76351541 -414.07402283 6.76351541 -408.59375 5.40234375 C-404.96897759 6.23756992 -404.10199612 8.09001428 -402.15234375 11.13671875 C-401.73082031 11.83410156 -401.30929687 12.53148437 -400.875 13.25 C-400.01898706 14.60985238 -399.162236 15.96924045 -398.3046875 17.328125 C-397.90862305 17.96943359 -397.51255859 18.61074219 -397.10449219 19.27148438 C-395.94113586 21.14563248 -395.94113586 21.14563248 -394.1953125 23.359375 C-393 25 -393 25 -393 27 C-392.34 27 -391.68 27 -391 27 C-389.2505866 29.02579642 -387.61709192 31.05944037 -386 33.1875 C-385.51305664 33.81809326 -385.02611328 34.44868652 -384.52441406 35.09838867 C-383.01055184 37.06126537 -381.50507612 39.03038204 -380 41 C-379.09959558 42.16976162 -378.19858283 43.33905531 -377.296875 44.5078125 C-374.19627135 48.52989957 -371.09584264 52.55192222 -368.03125 56.6015625 C-364.62618335 61.06697886 -361.30232378 65.36692659 -357 69 C-353.7489469 68.68217811 -351.52394768 67.20287165 -348.875 65.375 C-348.09181396 64.8377832 -347.30862793 64.30056641 -346.50170898 63.74707031 C-345.67614502 63.17053711 -344.85058105 62.59400391 -344 62 C-343.14929932 61.41057617 -342.29859863 60.82115234 -341.42211914 60.21386719 C-331.09682395 53.0267959 -321.15123547 45.67046405 -312 37 C-311.32453125 36.36191406 -310.6490625 35.72382812 -309.953125 35.06640625 C-307.78168361 32.76902126 -306.03432297 30.35785664 -304.25 27.75 C-303.63640625 26.85796875 -303.0228125 25.9659375 -302.390625 25.046875 C-301.93171875 24.37140625 -301.4728125 23.6959375 -301 23 C-296.47468055 24.47199053 -293.18615371 27.00419559 -289.625 30.0625 C-289.05499268 30.548396 -288.48498535 31.03429199 -287.89770508 31.53491211 C-283.33184849 35.52068835 -279.15464919 39.78048952 -276 45 C-276 45.66 -276 46.32 -276 47 C-275.360625 47.226875 -274.72125 47.45375 -274.0625 47.6875 C-266.00104584 51.14240892 -260.81426713 54.90749998 -255.06640625 61.625 C-251.21277772 66.05412315 -247.53537047 68.91959231 -242 71 C-241.5875 70.443125 -241.175 69.88625 -240.75 69.3125 C-237.61205653 65.16593184 -234.37914576 61.16246999 -230.8125 57.375 C-230.17957031 56.70210937 -229.54664063 56.02921875 -228.89453125 55.3359375 C-227 54 -227 54 -225 54.1171875 C-222.78718433 55.09393817 -221.10825713 56.28007146 -219.1875 57.75 C-213.02060749 62.00833676 -206.15930979 63.96720955 -199 66 C-198.15824219 66.28359375 -197.31648438 66.5671875 -196.44921875 66.859375 C-192.81946452 67.06778194 -190.49393739 65.35204738 -187.5625 63.4375 C-186.23319699 62.59095098 -184.90376139 61.74461012 -183.57421875 60.8984375 C-182.84895996 60.43147461 -182.12370117 59.96451172 -181.37646484 59.48339844 C-178.81667838 57.88556994 -176.20885529 56.39888944 -173.58203125 54.9140625 C-161.00564583 47.62804443 -152.83898581 40.23866261 -145.18652344 27.87451172 C-143.62859263 25.41323749 -141.95697061 23.1577951 -140 21 C-139.34 21 -138.68 21 -138 21 C-138 20.34 -138 19.68 -138 19 C-137.29875 18.525625 -136.5975 18.05125 -135.875 17.5625 C-131.63923997 13.78714867 -129.52122095 9.02511392 -127 4 C-118.40249885 5.35750018 -111.02780072 10.1768573 -104.125 15.25 C-99.74370947 18.28407199 -96.80064297 19.40241685 -91.5 19.75 C-78.20753937 20.97722384 -65.01952078 30.73423283 -56.265625 40.453125 C-55.63914062 41.21882813 -55.63914062 41.21882813 -55 42 C-50.72588818 40.53842756 -47.35368979 38.30341792 -43.8125 35.5625 C-43.24152588 35.12437988 -42.67055176 34.68625977 -42.08227539 34.23486328 C-38.29475901 31.24318601 -35.09823716 28.04206884 -31.9375 24.375 C-27.82911148 19.65893987 -23.60072389 16.43200452 -18.31640625 13.125 C-14.33611207 10.57461127 -10.54813652 7.81163673 -6.75 5 C-6.08137939 4.50628906 -5.41275879 4.01257813 -4.72387695 3.50390625 C-3.14760387 2.3381618 -1.57355159 1.16941539 0 0 Z M-488 188 C-485.00068835 189.38891928 -485.00068835 189.38891928 -482.3125 187.6875 C-481.549375 187.130625 -480.78625 186.57375 -480 186 C-480 185.34 -480 184.68 -480 184 C-483.28158484 184 -485.37881108 186.17656423 -488 188 Z M-280 188 C-279.34 189.32 -278.68 190.64 -278 192 C-277.34 191.34 -276.68 190.68 -276 190 C-277.32 189.34 -278.64 188.68 -280 188 Z M-399 201 C-399.33 202.32 -399.66 203.64 -400 205 C-399.34 203.68 -398.68 202.36 -398 201 C-398.33 201 -398.66 201 -399 201 Z M-428 206 C-427.34 206.66 -426.68 207.32 -426 208 C-426 207.34 -426 206.68 -426 206 C-426.66 206 -427.32 206 -428 206 Z M-455 210 C-456.33333333 213 -456.33333333 213 -455 216 C-451.37 216 -447.74 216 -444 216 C-443.67 214.02 -443.34 212.04 -443 210 C-446.96 210 -450.92 210 -455 210 Z M-455 228 C-455.66 228.66 -456.32 229.32 -457 230 C-455.35 230 -453.7 230 -452 230 C-452 229.34 -452 228.68 -452 228 C-452.99 228 -453.98 228 -455 228 Z M-449 229 C-449.33 229.66 -449.66 230.32 -450 231 C-446.535 230.505 -446.535 230.505 -443 230 C-443 229.67 -443 229.34 -443 229 C-444.98 229 -446.96 229 -449 229 Z M-303 238 C-298.97097493 241.85184041 -296.20604797 242.54369914 -290.6875 242.75 C-288.80611328 242.83507812 -288.80611328 242.83507812 -286.88671875 242.921875 C-285.93410156 242.94765625 -284.98148438 242.9734375 -284 243 C-285.48294628 240.36128056 -285.48294628 240.36128056 -288 238 C-290.81239326 237.62601153 -292.97592155 237.51706985 -295.75 237.6875 C-296.79607422 237.72133789 -296.79607422 237.72133789 -297.86328125 237.75585938 C-299.57644935 237.81452952 -301.28850623 237.90420744 -303 238 Z M-282 238 C-281.67 238.66 -281.34 239.32 -281 240 C-280.34 239.34 -279.68 238.68 -279 238 C-279.99 238 -280.98 238 -282 238 Z "
    transform="translate(536,3)"/>
  <path
    d="M0 0 C2.43684672 2.43684672 3.2579022 4.68944478 4.5625 7.875 C4.99691406 8.92429688 5.43132812 9.97359375 5.87890625 11.0546875 C6.76536235 13.38356519 7.58345514 15.54637962 8 18 C7.67 18.33 7.34 18.66 7 19 C7.99 19.33 8.98 19.66 10 20 C10 20.66 10 21.32 10 22 C11.9600281 23.63676257 11.9600281 23.63676257 14 25 C11.03 25.99 8.06 26.98 5 28 C7.35953094 30.35953094 8.77895617 30.49141413 12 31 C11.34 32.65 10.68 34.3 10 36 C11.65 36 13.3 36 15 36 C15 36.99 15 37.98 15 39 C15.66 39.33 16.32 39.66 17 40 C19.60931266 39.10636395 19.60931266 39.10636395 22 38 C21.52643877 42.26205106 19.15301808 44.28693793 16 47 C13.6875 47.8125 13.6875 47.8125 12 48 C12 48.66 12 49.32 12 50 C12.66 50.33 13.32 50.66 14 51 C13.01 51.66 12.02 52.32 11 53 C13.31 53.33 15.62 53.66 18 54 C17.67 55.32 17.34 56.64 17 58 C17.70125 57.855625 18.4025 57.71125 19.125 57.5625 C22.07556141 56.98521625 25.03270151 56.48304859 28 56 C28 57.65 28 59.3 28 61 C29.04800781 60.566875 29.04800781 60.566875 30.1171875 60.125 C31.02726562 59.75375 31.93734375 59.3825 32.875 59 C34.23238281 58.443125 34.23238281 58.443125 35.6171875 57.875 C38 57 38 57 40 57 C40 56.34 40 55.68 40 55 C38.35 55 36.7 55 35 55 C34.67 54.34 34.34 53.68 34 53 C33.360625 52.896875 32.72125 52.79375 32.0625 52.6875 C31.381875 52.460625 30.70125 52.23375 30 52 C28.75 49.4375 28.75 49.4375 28 47 C31.465 46.505 31.465 46.505 35 46 C34.67 45.01 34.34 44.02 34 43 C34.33 42.01 34.66 41.02 35 40 C35.99 40 36.98 40 38 40 C38 39.01 38 38.02 38 37 C36.68 36.34 35.36 35.68 34 35 C34 34.34 34 33.68 34 33 C37.29549466 31.27735506 40.33118845 29.70554068 44 29 C44 28.34 44 27.68 44 27 C42.02 26.67 40.04 26.34 38 26 C38 25.34 38 24.68 38 24 C38.99 24 39.98 24 41 24 C41.103125 23.401875 41.20625 22.80375 41.3125 22.1875 C42.09385053 19.70138466 43.14895416 18.77056558 45 17 C45 16.34 45 15.68 45 15 C45.66 14.67 46.32 14.34 47 14 C47.65213292 11.97536745 47.65213292 11.97536745 48 10 C48.66 10 49.32 10 50 10 C51.06965872 16.32448699 52.13329546 22.64416673 53 29 C54.65 29.66 56.3 30.32 58 31 C57.34 31.33 56.68 31.66 56 32 C56 32.99 56 33.98 56 35 C57.65 34.67 59.3 34.34 61 34 C60.67 35.32 60.34 36.64 60 38 C61.65 37.67 63.3 37.34 65 37 C64.45912682 40.78611227 62.88277668 42.55400767 60 45 C59.34 45 58.68 45 58 45 C58.33 45.99 58.66 46.98 59 48 C58.34 48.33 57.68 48.66 57 49 C58.98 49.33 60.96 49.66 63 50 C62.67 51.32 62.34 52.64 62 54 C63.1446875 53.505 63.1446875 53.505 64.3125 53 C67 52 67 52 70 52 C69.5206753 56.31392226 68.2542015 58.16569547 65 61 C65.66 61.66 66.32 62.32 67 63 C63.98112756 66.48331435 61.43090471 67.79157144 57 69 C58.6107605 70.26878594 58.6107605 70.26878594 61 71 C64.70172534 70.2046876 64.70172534 70.2046876 68 69 C68 69.66 68 70.32 68 71 C69.98 70.67 71.96 70.34 74 70 C72.66666667 72.66666667 71.33333333 75.33333333 70 78 C69.7009375 78.7115625 69.401875 79.423125 69.09375 80.15625 C67.21844997 83.31747006 64.3565933 83.7568173 61 85 C63.40545638 86.20272819 64.94996953 86.10071472 67.625 86.0625 C68.44226563 86.05347656 69.25953125 86.04445313 70.1015625 86.03515625 C70.72804688 86.02355469 71.35453125 86.01195312 72 86 C72 86.66 72 87.32 72 88 C71.34 88.66 70.68 89.32 70 90 C70.66 90.66 71.32 91.32 72 92 C69.36 92.33 66.72 92.66 64 93 C64.33 93.99 64.66 94.98 65 96 C68.3 96 71.6 96 75 96 C75 96.33 75 96.66 75 97 C77.97 97 80.94 97 84 97 C82.1875 99 82.1875 99 80 101 C79.01 101 78.02 101 77 101 C77 101.66 77 102.32 77 103 C75.515 103.99 75.515 103.99 74 105 C73.67 105.66 73.34 106.32 73 107 C70.9375 107.625 70.9375 107.625 69 108 C69.99 108 70.98 108 72 108 C72 109.32 72 110.64 72 112 C72.99 112 73.98 112 75 112 C74.67 113.32 74.34 114.64 74 116 C75.32 116.33 76.64 116.66 78 117 C78 117.66 78 118.32 78 119 C76.02 119.66 74.04 120.32 72 121 C74.97 121.99 77.94 122.98 81 124 C80.34 125.32 79.68 126.64 79 128 C78.34 128 77.68 128 77 128 C77 128.99 77 129.98 77 131 C74.69 131 72.38 131 70 131 C72.55991624 133.01136276 75.04590299 134.62845496 78 136 C77.67 136.33 77.34 136.66 77 137 C80.3 136.67 83.6 136.34 87 136 C84.70314778 140.59370444 83.50683228 140.97652428 79 143 C77.515 143.99 77.515 143.99 76 145 C76 145.66 76 146.32 76 147 C68.80981251 148.91738333 62.44482026 149.17114529 55 149 C54.67 152.96 54.34 156.92 54 161 C55.27875 161.06058594 56.5575 161.12117187 57.875 161.18359375 C59.5833411 161.26807216 61.29167401 161.35271641 63 161.4375 C63.83917969 161.47681641 64.67835938 161.51613281 65.54296875 161.55664062 C70.73577739 161.81829377 75.87152436 162.1200002 81 163 C81.33 163.66 81.66 164.32 82 165 C81.03811768 165.14099121 80.07623535 165.28198242 79.08520508 165.42724609 C75.45265041 165.95982567 71.82018518 166.49301321 68.18774414 167.02636719 C66.62754642 167.25536938 65.06732576 167.48421541 63.50708008 167.71289062 C61.2403338 168.04514273 58.97368241 168.37803715 56.70703125 168.7109375 C55.9579097 168.82049774 55.20878815 168.93005798 54.43696594 169.04293823 C50.03473424 169.68959101 45.64207314 170.38076624 41.25 171.09375 C34.58527509 172.12584908 27.91232949 172.65751898 21.1875 173.125 C20.00607422 173.21136719 18.82464844 173.29773438 17.60742188 173.38671875 C14.73858184 173.59578402 11.86949439 173.8001539 9 174 C9.65977531 177.1092259 9.65977531 177.1092259 12.01464844 178.11132812 C15.90526442 179.26947682 19.74071653 179.75331533 23.765625 180.21875 C25.47657504 180.43088847 27.18751217 180.64313109 28.8984375 180.85546875 C31.58658238 181.18075106 34.27506145 181.5029805 36.96386719 181.82275391 C39.56545697 182.13458506 42.16551099 182.45737914 44.765625 182.78125 C45.98116058 182.92040833 45.98116058 182.92040833 47.22125244 183.06237793 C49.15748658 183.30551367 51.08137857 183.6436162 53 184 C53.33 184.66 53.66 185.32 54 186 C46.6703395 186.46590351 39.34055193 186.7643705 32 187 C31.29101562 187.02358582 30.58203125 187.04717163 29.8515625 187.07147217 C6.02220601 187.83872479 -18.55220412 188.41883315 -41 179 C-41 178.67 -41 178.34 -41 178 C-28.04689346 175.54676013 -14.94060742 177.33980752 -2 179 C-2.5347998 178.76812988 -3.06959961 178.53625977 -3.62060547 178.29736328 C-6.0408853 177.24477038 -8.45794771 176.18498196 -10.875 175.125 C-11.71675781 174.76019531 -12.55851563 174.39539063 -13.42578125 174.01953125 C-14.23144531 173.66503906 -15.03710938 173.31054688 -15.8671875 172.9453125 C-16.98262939 172.45828857 -16.98262939 172.45828857 -18.12060547 171.96142578 C-20 171 -20 171 -22 169 C-15.375 168 -15.375 168 -12 168 C-14.17857953 166.66942945 -14.17857953 166.66942945 -17.625 167.5625 C-24.77961326 168.50235067 -31.91982508 167.05116707 -39 166 C-39 165.34 -39 164.68 -39 164 C-51.41760311 163.86629768 -63.73158899 164.24427328 -76.125 165 C-77.77731582 165.09683188 -79.42965961 165.19318777 -81.08203125 165.2890625 C-85.05502917 165.5205931 -89.02760035 165.75843082 -93 166 C-84.13781946 159.12257254 -72.82967964 158.12439297 -62 157 C-81.18144093 153.24506866 -98.62704615 157.58182289 -117 163 C-119.58681311 163.74309132 -122.17609168 164.47738906 -124.765625 165.2109375 C-130.61480025 166.86939071 -136.45555169 168.55540936 -142.29052734 170.26318359 C-149.13654353 172.12489533 -155.58121019 172.18616349 -162.6574707 172.18530273 C-164.69177712 172.18750463 -166.72555386 172.2057355 -168.75976562 172.22460938 C-170.03916016 172.22654297 -171.31855469 172.22847656 -172.63671875 172.23046875 C-173.80936279 172.23457764 -174.98200684 172.23868652 -176.19018555 172.24291992 C-179 172 -179 172 -181 170 C-179.35 169.34 -177.7 168.68 -176 168 C-176.62925385 167.98969254 -177.25850769 167.97938507 -177.90682983 167.96876526 C-184.49380532 167.86005006 -191.08066178 167.74551067 -197.66748047 167.62768555 C-200.12123102 167.58454375 -202.57500759 167.54285535 -205.02880859 167.50268555 C-208.56876445 167.44447677 -212.10859181 167.38093167 -215.6484375 167.31640625 C-216.73426117 167.29969376 -217.82008484 167.28298126 -218.93881226 167.26576233 C-225.33953824 167.14304679 -231.64184075 166.7529501 -238 166 C-235.0157343 164.30275592 -232.72296104 163.70931178 -229.30517578 163.52929688 C-228.37544952 163.47584106 -227.44572327 163.42238525 -226.48782349 163.36730957 C-225.48379486 163.31828491 -224.47976624 163.26926025 -223.4453125 163.21875 C-221.86736404 163.13022766 -221.86736404 163.13022766 -220.25753784 163.03991699 C-216.88042005 162.85163303 -213.50282548 162.67508934 -210.125 162.5 C-184.73077356 161.14539248 -159.70540813 158.82732476 -134.5 155.4375 C-99.99185947 150.80049802 -99.99185947 150.80049802 -82.625 150.8125 C-81.62275391 150.81185547 -80.62050781 150.81121094 -79.58789062 150.81054688 C-68.34341184 150.88742025 -57.18154704 151.87345614 -46 153 C-46 152.67 -46 152.34 -46 152 C-40.58500559 151.88478735 -35.37084106 152.31798844 -30 153 C-31.98 152.01 -33.96 151.02 -36 150 C-36 149.67 -36 149.34 -36 149 C-31.05 148.67 -26.1 148.34 -21 148 C-23.78969289 146.60515355 -26.46586614 146.54493239 -29.5625 146.1875 C-35.64262633 145.36721519 -40.62337461 143.9301186 -46 141 C-46 140.34 -46 139.68 -46 139 C-45.43152344 139.02320313 -44.86304688 139.04640625 -44.27734375 139.0703125 C-39.07441352 139.19191688 -34.92687757 138.67723492 -30 137 C-30.99 136.34 -31.98 135.68 -33 135 C-33 134.34 -33 133.68 -33 133 C-30.03 133.33 -27.06 133.66 -24 134 C-24 133.34 -24 132.68 -24 132 C-23.01 132 -22.02 132 -21 132 C-21 131.01 -21 130.02 -21 129 C-25.29 129 -29.58 129 -34 129 C-34.33 128.34 -34.66 127.68 -35 127 C-35.73412109 126.98018066 -36.46824219 126.96036133 -37.22460938 126.93994141 C-52.07155163 126.51926255 -66.61778168 125.89703639 -81.28125 123.453125 C-85.02366754 122.99711614 -88.65838423 122.87982482 -92.42260742 122.81030273 C-103.73124365 122.56911172 -114.45081443 121.09032704 -125.51074219 118.72753906 C-132.77984246 117.2172771 -139.57910906 116.70756341 -147 117 C-146.30382568 117.27642334 -145.60765137 117.55284668 -144.89038086 117.83764648 C-139.894957 119.82298812 -134.92967207 121.85666432 -130 124 C-138.01406436 128.4779251 -149.4088454 125.6394634 -158 124 C-162.50057274 122.61202809 -166.60157754 120.81437167 -170.66967773 118.4453125 C-174.57827127 116.74903849 -177.28393552 116.68470275 -181.53125 116.77734375 C-182.60070862 116.79082603 -182.60070862 116.79082603 -183.69177246 116.80458069 C-185.96169502 116.83440492 -188.23052048 116.88402932 -190.5 116.9375 C-199.93632127 117.14152303 -208.80928187 117.0154398 -218.15527344 115.48754883 C-226.50828168 114.42830591 -234.96538278 114.51569767 -243.375 114.375 C-245.28647414 114.33671861 -247.1979329 114.29766143 -249.109375 114.2578125 C-253.73945505 114.16294662 -258.36961517 114.07852438 -263 114 C-259.35630754 111.57087169 -255.98795231 111.16563927 -251.75390625 110.52734375 C-250.94638412 110.39936905 -250.138862 110.27139435 -249.30686951 110.13954163 C-246.72645149 109.73188583 -244.14460427 109.33432157 -241.5625 108.9375 C-238.9843068 108.53517585 -236.40645522 108.13077057 -233.82884216 107.7247467 C-232.22545592 107.47284293 -230.62167658 107.22342554 -229.01747131 106.97679138 C-225.6318712 106.45053024 -222.31435166 105.86598718 -219 105 C-218.81824219 103.98292969 -218.81824219 103.98292969 -218.6328125 102.9453125 C-218.28170291 100.99530383 -217.92593125 99.04613092 -217.56640625 97.09765625 C-217.20639203 95.12875091 -216.858616 93.15753832 -216.52734375 91.18359375 C-216.29724609 89.88615234 -216.29724609 89.88615234 -216.0625 88.5625 C-215.92972656 87.78003906 -215.79695313 86.99757813 -215.66015625 86.19140625 C-214.8932464 83.6456286 -213.69465619 82.0271228 -212 80 C-210.68 82.64 -209.36 85.28 -208 88 C-206.70122619 85.24010565 -206 83.26187616 -206 80.1875 C-206 76.81287764 -205.38249088 74.11452939 -204.50390625 70.8828125 C-203.9416274 68.87925322 -203.9416274 68.87925322 -203.5 66.3125 C-202.941281 63.72842464 -202.03981211 61.42622825 -201 59 C-200.34 59 -199.68 59 -199 59 C-196.8915995 65.60632156 -195.23416987 72.17576662 -194 79 C-193.690625 78.38125 -193.38125 77.7625 -193.0625 77.125 C-192.375 75.75 -191.6875 74.375 -191 73 C-190.34 73 -189.68 73 -189 73 C-188.01 75.97 -187.02 78.94 -186 82 C-185.34 80.02 -184.68 78.04 -184 76 C-184.66 75.67 -185.32 75.34 -186 75 C-185.690625 74.319375 -185.38125 73.63875 -185.0625 72.9375 C-183.8835554 70.00200595 -183.8835554 70.00200595 -183.5625 66.75 C-182.89115637 62.27437578 -181.53030737 58.24443741 -180 54 C-179.34 54 -178.68 54 -178 54 C-175.73141173 61.27235389 -173.79354806 68.59684417 -172 76 C-170.84494867 73.24743817 -169.98349647 70.8989159 -169.5 67.9375 C-169.03629006 65.21320413 -168.36838088 63.37186019 -167 61 C-165.12648408 63.81027388 -164.5794204 65.23868658 -163.9375 68.4375 C-163.34926723 71.31060384 -162.73115691 74.15948775 -162 77 C-160.38262517 72.37892907 -159.14751403 67.7539867 -158 63 C-157.34 63 -156.68 63 -156 63 C-154.23020858 65.65468714 -153.57859829 67.07499931 -152.875 70.0625 C-152.70742188 70.75472656 -152.53984375 71.44695312 -152.3671875 72.16015625 C-152 74 -152 74 -152 76 C-150.6253723 70.65217543 -150.6253723 70.65217543 -149.5 65.25 C-148.98110608 62.91497738 -148.15787833 61.08418099 -147 59 C-145 60 -145 60 -144.21875 61.890625 C-143.9815625 62.66921875 -143.744375 63.4478125 -143.5 64.25 C-142.45842788 67.5650544 -141.34509549 70.79246459 -140 74 C-139.34 72.02 -138.68 70.04 -138 68 C-138.66 67.67 -139.32 67.34 -140 67 C-139.525625 66.443125 -139.05125 65.88625 -138.5625 65.3125 C-136.85109834 63.11583857 -136.85109834 63.11583857 -136.5625 60.5625 C-135.83933173 57.26806676 -134.20903411 55.49407077 -132 53 C-129.82826101 57.36368019 -127.8635446 61.41783616 -127.375 66.3125 C-127.03945886 69.61198792 -126.55578074 71.19959466 -125 74 C-125 74.99 -125 75.98 -125 77 C-124.05021103 79.15028304 -124.05021103 79.15028304 -123 81 C-122.81824219 80.45730469 -122.63648438 79.91460937 -122.44921875 79.35546875 C-122.19785156 78.64003906 -121.94648438 77.92460937 -121.6875 77.1875 C-121.44386719 76.47980469 -121.20023438 75.77210938 -120.94921875 75.04296875 C-119.93275742 72.85527627 -118.79179406 71.59103282 -117 70 C-114.55302334 74.36200187 -113.49730652 78.02693484 -113 83 C-111.53922186 81.53922186 -111.5676031 80.08379593 -111.1875 78.0625 C-110.07392505 72.77514414 -108.12931761 67.95118027 -106 63 C-101.10565512 67.43967896 -100.77240731 73.69200701 -100 80 C-99.89042969 79.43152344 -99.78085937 78.86304688 -99.66796875 78.27734375 C-98.62061834 73.17683242 -97.20728247 68.715558 -95 64 C-93 65 -93 65 -91 69 C-90.01 66.03 -89.02 63.06 -88 60 C-85.44065399 61.279673 -85.3010767 62.24201036 -84.3125 64.875 C-84.04050781 65.57367188 -83.76851562 66.27234375 -83.48828125 66.9921875 C-83 69 -83 69 -84 72 C-83.34 72 -82.68 72 -82 72 C-82 70.68 -82 69.36 -82 68 C-81.34 68 -80.68 68 -80 68 C-79.80664062 68.68707031 -79.61328125 69.37414062 -79.4140625 70.08203125 C-79.15367187 70.98308594 -78.89328125 71.88414062 -78.625 72.8125 C-78.36976563 73.70582031 -78.11453125 74.59914063 -77.8515625 75.51953125 C-77.04733339 78.20467896 -77.04733339 78.20467896 -75 81 C-74.40267181 78.23735711 -74 75.83967231 -74 73 C-73.33333333 71.66666667 -72.66666667 70.33333333 -72 69 C-72 68.01 -72 67.02 -72 66 C-70.625 63.3125 -70.625 63.3125 -69 61 C-68.34 61 -67.68 61 -67 61 C-66.80664062 61.71285156 -66.61328125 62.42570312 -66.4140625 63.16015625 C-63.8833438 72.63239337 -63.8833438 72.63239337 -61 82 C-60.65772583 83.33106622 -60.32248257 84.66400079 -60 86 C-59.9175 85.030625 -59.835 84.06125 -59.75 83.0625 C-59.09058653 78.38926538 -57.32760215 74.09306643 -55 70 C-54.34 69.67 -53.68 69.34 -53 69 C-50.96470179 74.84606932 -49.24172813 80.70695648 -47.74609375 86.71484375 C-47.13698822 89.16482543 -47.13698822 89.16482543 -45 91 C-44.8453125 89.948125 -44.8453125 89.948125 -44.6875 88.875 C-43.90640997 85.60862353 -42.57941257 82.9528148 -41 80 C-38.31550815 83.17537035 -37.10862049 86.17158631 -35.875 90.125 C-34.64579 94.14710986 -34.64579 94.14710986 -33 98 C-33.66 98 -34.32 98 -35 98 C-34.67 98.78375 -34.34 99.5675 -34 100.375 C-33 103 -33 103 -33 105 C-28.68552447 106.20883939 -24.45283897 106.64937235 -20 106 C-17.87644433 104.17728073 -17.87644433 104.17728073 -17 102 C-19.97 101.67 -22.94 101.34 -26 101 C-26 100.34 -26 99.68 -26 99 C-25.01 98.34 -24.02 97.68 -23 97 C-24.65 96.67 -26.3 96.34 -28 96 C-27.01 95.01 -26.02 94.02 -25 93 C-27.475 90.525 -27.475 90.525 -30 88 C-28.205625 88.0928125 -28.205625 88.0928125 -26.375 88.1875 C-22.24657141 88.18016709 -19.46907665 87.36912551 -16 85 C-15.03955898 82.92309422 -15.03955898 82.92309422 -15 81 C-17.97 80.01 -17.97 80.01 -21 79 C-20.67 78.01 -20.34 77.02 -20 76 C-21.65 75.67 -23.3 75.34 -25 75 C-24.34 74.34 -23.68 73.68 -23 73 C-23.99 72.195625 -24.98 71.39125 -26 70.5625 C-26.99 69.716875 -27.98 68.87125 -29 68 C-29 67.67 -29 67.34 -29 67 C-28.0925 66.87625 -27.185 66.7525 -26.25 66.625 C-23.30185573 66.05804918 -21.58477545 65.40987752 -19 64 C-16.67792082 62.97244219 -14.33870987 61.98945418 -12 61 C-13.65 60.34 -15.3 59.68 -17 59 C-17 58.34 -17 57.68 -17 57 C-19.31 56.67 -21.62 56.34 -24 56 C-24 55.01 -24 54.02 -24 53 C-24.66 52.67 -25.32 52.34 -26 52 C-25.67 51.34 -25.34 50.68 -25 50 C-22.6859378 49.26924352 -20.35171131 48.59861742 -18 48 C-18.33 47.01 -18.66 46.02 -19 45 C-16.36 45 -13.72 45 -11 45 C-13.31 44.67 -15.62 44.34 -18 44 C-15.63707344 41.47411298 -14.33537489 40.11179163 -11 39 C-12.134375 38.54625 -13.26875 38.0925 -14.4375 37.625 C-18 36 -18 36 -19 34 C-16.36 33.01 -13.72 32.02 -11 31 C-11.33 30.34 -11.66 29.68 -12 29 C-9.03 28.505 -9.03 28.505 -6 28 C-8.64 27.01 -11.28 26.02 -14 25 C-13.360625 24.7525 -12.72125 24.505 -12.0625 24.25 C-11.381875 23.8375 -10.70125 23.425 -10 23 C-9.855625 22.34 -9.71125 21.68 -9.5625 21 C-9.376875 20.34 -9.19125 19.68 -9 19 C-6.4375 17.75 -6.4375 17.75 -4 17 C-4.226875 16.401875 -4.45375 15.80375 -4.6875 15.1875 C-4.790625 14.465625 -4.89375 13.74375 -5 13 C-4.30390625 12.3503125 -4.30390625 12.3503125 -3.59375 11.6875 C-1.51654575 9.48810727 -1.31168745 7.76922566 -0.8125 4.8125 C-0.65394531 3.91144531 -0.49539063 3.01039062 -0.33203125 2.08203125 C-0.16767578 1.05142578 -0.16767578 1.05142578 0 0 Z M26 61 C22.57421051 64.17539556 22.57421051 64.17539556 20 68 C20.99 68.33 21.98 68.66 23 69 C21.02 69.99 21.02 69.99 19 71 C19 71.66 19 72.32 19 73 C17.88625 73.103125 16.7725 73.20625 15.625 73.3125 C14.42875 73.539375 13.2325 73.76625 12 74 C11.34 74.99 10.68 75.98 10 77 C13.47897423 79.31931615 15.03444498 79.04089055 19.05859375 78.42578125 C21.26615501 77.94162798 23.08272668 77.19829583 25 76 C25 76.99 25 77.98 25 79 C28.465 78.505 28.465 78.505 32 78 C32.33 78.66 32.66 79.32 33 80 C34.98 78.68 36.96 77.36 39 76 C38.34 75.67 37.68 75.34 37 75 C36.67 74.01 36.34 73.02 36 72 C34.68 72 33.36 72 32 72 C32.33 71.01 32.66 70.02 33 69 C32.01 69 31.02 69 30 69 C30 68.34 30 67.68 30 67 C30.66 66.67 31.32 66.34 32 66 C31.38125 65.731875 30.7625 65.46375 30.125 65.1875 C28 64 28 64 26 61 Z M42 72 C41.01 72.99 40.02 73.98 39 75 C40.65 74.34 42.3 73.68 44 73 C43.34 72.67 42.68 72.34 42 72 Z M-141 77 C-140.34 78.32 -139.68 79.64 -139 81 C-139 79.68 -139 78.36 -139 77 C-139.66 77 -140.32 77 -141 77 Z M-162 79 C-162.33 80.32 -162.66 81.64 -163 83 C-162.34 81.68 -161.68 80.36 -161 79 C-161.33 79 -161.66 79 -162 79 Z M-152 79 C-152.33 79.99 -152.66 80.98 -153 82 C-152.01 82.495 -152.01 82.495 -151 83 C-151.33 81.68 -151.66 80.36 -152 79 Z M-125 83 C-125 84.32 -125 85.64 -125 87 C-124.34 87 -123.68 87 -123 87 C-123 85.68 -123 84.36 -123 83 C-123.66 83 -124.32 83 -125 83 Z M-75 84 C-75 85.32 -75 86.64 -75 88 C-74.67 86.68 -74.34 85.36 -74 84 C-74.33 84 -74.66 84 -75 84 Z M24 88 C24 88.99 24 89.98 24 91 C22.68 91 21.36 91 20 91 C20 91.66 20 92.32 20 93 C17.03 93 14.06 93 11 93 C11 93.33 11 93.66 11 94 C12.134375 94.309375 13.26875 94.61875 14.4375 94.9375 C18 96 18 96 19 97 C22 97.16666667 22 97.16666667 25 97 C25.33 96.67 25.66 96.34 26 96 C28.33333333 96 30.66666667 96 33 96 C33.66 95.67 34.32 95.34 35 95 C35 94.34 35 93.68 35 93 C36.32 92.67 37.64 92.34 39 92 C36.71294169 90.85647084 35.40735238 90.89665561 32.875 90.9375 C30.956875 90.9684375 30.956875 90.9684375 29 91 C29.99 89.68 30.98 88.36 32 87 C27.82189931 85.81068813 27.82189931 85.81068813 24 88 Z M-208 89 C-208 89.66 -208 90.32 -208 91 C-207.34 91 -206.68 91 -206 91 C-206 90.34 -206 89.68 -206 89 C-206.66 89 -207.32 89 -208 89 Z M-61 90 C-60.67 91.32 -60.34 92.64 -60 94 C-59.67 93.01 -59.34 92.02 -59 91 C-59.66 90.67 -60.32 90.34 -61 90 Z M-48 93 C-47.67 94.65 -47.34 96.3 -47 98 C-46.34 97.67 -45.68 97.34 -45 97 C-45.33 95.68 -45.66 94.36 -46 93 C-46.66 93 -47.32 93 -48 93 Z M31 100 C30.67 100.33 30.34 100.66 30 101 C26.66962553 101.24468057 23.34026286 101.38427005 20.00390625 101.5234375 C19.01261719 101.68070312 18.02132813 101.83796875 17 102 C16.01 103.485 16.01 103.485 15 105 C19.14113017 107.07056508 21.52503873 106.98449148 26 106 C27.794375 105.814375 27.794375 105.814375 29.625 105.625 C32.99875991 105.00022965 34.51432107 104.28682462 37 102 C34.18490007 99.7226499 34.18490007 99.7226499 31 100 Z M-33 107 C-31.68 108.32 -30.36 109.64 -29 111 C-28.01 110.34 -27.02 109.68 -26 109 C-28.31 108.34 -30.62 107.68 -33 107 Z M15 119 C16.89755144 121.34973818 16.89755144 121.34973818 20.125 121.125 C21.07375 121.08375 22.0225 121.0425 23 121 C23 120.34 23 119.68 23 119 C20.36 119 17.72 119 15 119 Z M25 120 C24.67 120.66 24.34 121.32 24 122 C25.65 122 27.3 122 29 122 C29 121.34 29 120.68 29 120 C27.68 120 26.36 120 25 120 Z M29 148 C31.25740623 150.33524782 33.2805761 152.18705073 36 154 C35.34 154.66 34.68 155.32 34 156 C35.47906892 156.02689216 36.95827483 156.04634621 38.4375 156.0625 C39.67306641 156.07990234 39.67306641 156.07990234 40.93359375 156.09765625 C42.99163938 156.23267348 42.99163938 156.23267348 44 155 C44.04092937 152.66702567 44.04241723 150.33294775 44 148 C38.65370398 146.9975695 34.37625234 147.15111805 29 148 Z M40 160 C40 160.66 40 161.32 40 162 C40.99 162 41.98 162 43 162 C43 161.34 43 160.68 43 160 C42.01 160 41.02 160 40 160 Z "
    transform="translate(630,120)"/>
  <path
    d="M0 0 C1.21083252 0.24524414 2.42166504 0.49048828 3.66918945 0.74316406 C4.30668121 0.87484985 4.94417297 1.00653564 5.60098267 1.14221191 C21.19433344 4.34553517 36.84875801 6.43459126 52.66235352 8.21362305 C53.49736389 8.31025742 54.33237427 8.40689178 55.19268799 8.50645447 C56.76302137 8.68755144 58.33418143 8.86166531 59.90618896 9.02760315 C63.48788879 9.44196668 65.47010673 9.82512323 68.52734375 11.86328125 C62.09234375 12.35828125 62.09234375 12.35828125 55.52734375 12.86328125 C56.71473145 12.99903564 57.90211914 13.13479004 59.12548828 13.2746582 C98.71512465 17.80799206 98.71512465 17.80799206 112.02734375 19.55078125 C112.88344238 19.65753174 113.73954102 19.76428223 114.62158203 19.87426758 C118.2546944 20.36648333 120.42651271 20.79606056 123.52734375 22.86328125 C106.77150764 23.21541128 90.12958738 22.17295504 73.42144775 21.06732178 C6.28198776 16.63518856 -59.37370185 17.82287427 -126.26586914 24.96923828 C-127.52212601 25.10151825 -128.77838287 25.23379822 -130.07270813 25.37008667 C-132.44399299 25.62051723 -134.81471131 25.87638943 -137.18473816 26.13845825 C-138.23591324 26.24906586 -139.28708832 26.35967346 -140.37011719 26.47363281 C-141.28758728 26.57339417 -142.20505737 26.67315552 -143.15032959 26.77593994 C-145.47265625 26.86328125 -145.47265625 26.86328125 -148.47265625 25.86328125 C-143.41790457 24.00191863 -138.40300962 23.00783117 -133.1171875 22.09375 C-132.19958145 21.93241074 -131.2819754 21.77107147 -130.33656311 21.60484314 C-127.32071865 21.07897876 -124.30331962 20.56316313 -121.28515625 20.05078125 C-119.72393036 19.78524445 -119.72393036 19.78524445 -118.13116455 19.51434326 C-87.82797853 14.39703459 -57.50450135 10.71263869 -26.79052734 9.40673828 C-25.68599968 9.35916885 -25.68599968 9.35916885 -24.55915833 9.31063843 C-22.58661933 9.2285377 -20.61374991 9.1544854 -18.64086914 9.08105469 C-16.08420809 8.90531749 -13.91025927 8.60745973 -11.47265625 7.86328125 C-14.89065387 7.09166335 -18.03703775 6.74070859 -21.53833008 6.74975586 C-23.00928886 6.74986916 -23.00928886 6.74986916 -24.50996399 6.74998474 C-26.07897713 6.75772667 -26.07897713 6.75772667 -27.6796875 6.765625 C-29.3004847 6.76774742 -29.3004847 6.76774742 -30.95402527 6.76991272 C-34.39776401 6.77550045 -37.84143723 6.78805075 -41.28515625 6.80078125 C-43.62304593 6.80579783 -45.96093664 6.81036046 -48.29882812 6.81445312 C-54.02345978 6.82546587 -59.74805333 6.84219184 -65.47265625 6.86328125 C-65.14265625 6.20328125 -64.81265625 5.54328125 -64.47265625 4.86328125 C-62.55273438 4.39498901 -62.55273438 4.39498901 -60.00390625 4.08544922 C-59.05201416 3.96547577 -58.10012207 3.84550232 -57.11938477 3.72189331 C-56.08096436 3.60097321 -55.04254395 3.4800531 -53.97265625 3.35546875 C-52.37538696 3.15994919 -52.37538696 3.15994919 -50.74584961 2.96047974 C-48.48327834 2.6855564 -46.22015123 2.4151761 -43.95654297 2.14892578 C-40.51386732 1.74313879 -37.07333925 1.32201621 -33.6328125 0.8984375 C-31.43370486 0.63319179 -29.23448905 0.368841 -27.03515625 0.10546875 C-26.01292969 -0.01949982 -24.99070312 -0.14446838 -23.9375 -0.27322388 C-15.75476505 -1.22513814 -8.11130785 -1.71409956 0 0 Z "
    transform="translate(289.47265625,286.13671875)"/>
  <path
    d="M0 0 C-0.66160126 0.00808685 -1.32320251 0.01617371 -2.00485229 0.02450562 C-8.9824121 0.11154487 -15.95971954 0.21107213 -22.93701172 0.31738281 C-25.53006706 0.35532212 -28.12316879 0.39023124 -30.71630859 0.421875 C-44.00502806 0.58599658 -57.15946074 0.77430526 -70.34179688 2.56616211 C-78.89536247 3.58055653 -87.49716826 3.36045308 -96 2 C-96 1.67 -96 1.34 -96 1 C-94.90429688 0.90203125 -93.80859375 0.8040625 -92.6796875 0.703125 C-83.38900601 -0.16396522 -74.16424693 -1.23811264 -64.92797852 -2.57299805 C-17.94068127 -9.28292536 -17.94068127 -9.28292536 0 0 Z "
    transform="translate(468,264)"/>
  <path
    d="M0 0 C3.25207092 1.41738489 5.31361067 3.12526412 7.75 5.6875 C10.37604296 8.39606187 13.03023683 10.91009091 15.9375 13.3125 C19.26624791 16.1451992 21.8702219 19.24685985 24.5625 22.6875 C28.10857207 27.16288751 30.92445287 29.5119867 36 32 C38.4375 34.25 38.4375 34.25 40 36 C35.87228547 35.04178056 32.38116972 34.18711968 28.5625 32.3125 C21.95618598 29.64328221 13.91228106 31.34804622 7 32 C7.78375 31.236875 8.5675 30.47375 9.375 29.6875 C12.07257717 27.09108195 12.07257717 27.09108195 14 24 C13.6596875 23.51273438 13.319375 23.02546875 12.96875 22.5234375 C9.62815534 17.63692935 6.56250561 12.6353799 3.625 7.5 C3.26728516 6.87657715 2.90957031 6.2531543 2.54101562 5.61083984 C0 1.12938977 0 1.12938977 0 0 Z "
    transform="translate(553,118)"/>
  <path d="" transform="translate(0,0)"/>
  <path d="" transform="translate(0,0)"/>
  <path d="" transform="translate(0,0)"/>
  <path d="" transform="translate(0,0)"/>
</svg>
